<svg width="960" height="1080" viewBox="0 0 960 1080" fill="none" xmlns="http://www.w3.org/2000/svg">
<path d="M7.168 997.757C6.31467 997.415 5.71733 996.989 5.376 996.477C5.12 995.965 4.992 995.282 4.992 994.429V988.797C4.992 987.943 5.12 987.261 5.376 986.749C5.71733 986.237 6.31467 985.81 7.168 985.469L63.744 959.741C64.256 959.57 64.64 959.485 64.896 959.485C65.92 959.485 66.432 960.082 66.432 961.277V971.389C66.432 972.327 66.2613 973.01 65.92 973.437C65.664 973.863 65.1093 974.247 64.256 974.589L24.96 991.485L64.256 1008.38C65.1093 1008.72 65.664 1009.11 65.92 1009.53C66.2613 1009.96 66.432 1010.64 66.432 1011.58V1021.95C66.432 1023.14 65.92 1023.74 64.896 1023.74C64.384 1023.74 64 1023.66 63.744 1023.48L7.168 997.757ZM78.159 1026.56C76.9643 1026.56 76.367 1026.04 76.367 1025.02C76.367 1024.51 76.495 1023.95 76.751 1023.36L110.287 941.693C110.884 940.242 111.908 939.517 113.359 939.517H125.391C126.586 939.517 127.183 940.071 127.183 941.181C127.183 941.693 127.055 942.205 126.799 942.717L93.263 1024.51C92.751 1025.87 91.6843 1026.56 90.063 1026.56H78.159ZM138.653 1023.74C137.629 1023.74 137.117 1023.14 137.117 1021.95V1012.35C137.117 1011.41 137.245 1010.73 137.501 1010.3C137.842 1009.87 138.44 1009.49 139.293 1009.15L179.101 991.485L139.293 973.821C138.44 973.479 137.842 973.095 137.501 972.669C137.245 972.242 137.117 971.559 137.117 970.621V961.277C137.117 960.082 137.629 959.485 138.653 959.485L139.677 959.741L196.381 985.469C197.149 985.895 197.704 986.365 198.045 986.877C198.386 987.303 198.557 987.943 198.557 988.797V994.429C198.557 995.282 198.386 995.965 198.045 996.477C197.704 996.903 197.149 997.33 196.381 997.757L139.677 1023.48L138.653 1023.74Z" fill="white" fill-opacity="0.12"/>
<path d="M13.5264 869.114C12.6731 868.773 12.0757 868.346 11.7344 867.834C11.4784 867.322 11.3504 866.639 11.3504 865.786V860.154C11.3504 859.301 11.4784 858.618 11.7344 858.106C12.0757 857.594 12.6731 857.167 13.5264 856.826L70.1024 831.098C70.6144 830.927 70.9984 830.842 71.2544 830.842C72.2784 830.842 72.7904 831.439 72.7904 832.634V842.746C72.7904 843.685 72.6197 844.367 72.2784 844.794C72.0224 845.221 71.4677 845.605 70.6144 845.946L31.3184 862.842L70.6144 879.738C71.4677 880.079 72.0224 880.463 72.2784 880.89C72.6197 881.317 72.7904 881.999 72.7904 882.938V893.306C72.7904 894.501 72.2784 895.098 71.2544 895.098C70.7424 895.098 70.3584 895.013 70.1024 894.842L13.5264 869.114ZM84.5174 897.914C83.3227 897.914 82.7254 897.402 82.7254 896.378C82.7254 895.866 82.8534 895.311 83.1094 894.714L116.645 813.05C117.243 811.599 118.267 810.874 119.717 810.874H131.749C132.944 810.874 133.541 811.429 133.541 812.538C133.541 813.05 133.413 813.562 133.157 814.074L99.6214 895.866C99.1094 897.231 98.0427 897.914 96.4214 897.914H84.5174ZM145.011 895.098C143.987 895.098 143.475 894.501 143.475 893.306V883.706C143.475 882.767 143.603 882.085 143.859 881.658C144.201 881.231 144.798 880.847 145.651 880.506L185.459 862.842L145.651 845.178C144.798 844.837 144.201 844.453 143.859 844.026C143.603 843.599 143.475 842.917 143.475 841.978V832.634C143.475 831.439 143.987 830.842 145.011 830.842L146.035 831.098L202.739 856.826C203.507 857.253 204.062 857.722 204.403 858.234C204.745 858.661 204.915 859.301 204.915 860.154V865.786C204.915 866.639 204.745 867.322 204.403 867.834C204.062 868.261 203.507 868.687 202.739 869.114L146.035 894.842L145.011 895.098Z" fill="white" fill-opacity="0.12"/>
<path d="M252.996 997.757C252.143 997.415 251.545 996.989 251.204 996.477C250.948 995.965 250.82 995.282 250.82 994.429V988.797C250.82 987.943 250.948 987.261 251.204 986.749C251.545 986.237 252.143 985.81 252.996 985.469L309.572 959.741C310.084 959.57 310.468 959.485 310.724 959.485C311.748 959.485 312.26 960.082 312.26 961.277V971.389C312.26 972.327 312.089 973.01 311.748 973.437C311.492 973.863 310.937 974.247 310.084 974.589L270.788 991.485L310.084 1008.38C310.937 1008.72 311.492 1009.11 311.748 1009.53C312.089 1009.96 312.26 1010.64 312.26 1011.58V1021.95C312.26 1023.14 311.748 1023.74 310.724 1023.74C310.212 1023.74 309.828 1023.66 309.572 1023.48L252.996 997.757ZM323.987 1026.56C322.792 1026.56 322.195 1026.04 322.195 1025.02C322.195 1024.51 322.323 1023.95 322.579 1023.36L356.115 941.693C356.712 940.242 357.736 939.517 359.187 939.517H371.219C372.414 939.517 373.011 940.071 373.011 941.181C373.011 941.693 372.883 942.205 372.627 942.717L339.091 1024.51C338.579 1025.87 337.512 1026.56 335.891 1026.56H323.987ZM384.481 1023.74C383.457 1023.74 382.945 1023.14 382.945 1021.95V1012.35C382.945 1011.41 383.073 1010.73 383.329 1010.3C383.67 1009.87 384.268 1009.49 385.121 1009.15L424.929 991.485L385.121 973.821C384.268 973.479 383.67 973.095 383.329 972.669C383.073 972.242 382.945 971.559 382.945 970.621V961.277C382.945 960.082 383.457 959.485 384.481 959.485L385.505 959.741L442.209 985.469C442.977 985.895 443.532 986.365 443.873 986.877C444.214 987.303 444.385 987.943 444.385 988.797V994.429C444.385 995.282 444.214 995.965 443.873 996.477C443.532 996.903 442.977 997.33 442.209 997.757L385.505 1023.48L384.481 1023.74Z" fill="white" fill-opacity="0.12"/>
<path d="M259.354 869.114C258.5 868.773 257.903 868.346 257.562 867.834C257.306 867.322 257.178 866.639 257.178 865.786V860.154C257.178 859.301 257.306 858.618 257.562 858.106C257.903 857.594 258.5 857.167 259.354 856.826L315.93 831.098C316.442 830.927 316.826 830.842 317.082 830.842C318.106 830.842 318.618 831.439 318.618 832.634V842.746C318.618 843.685 318.447 844.367 318.106 844.794C317.85 845.221 317.295 845.605 316.442 845.946L277.146 862.842L316.442 879.738C317.295 880.079 317.85 880.463 318.106 880.89C318.447 881.317 318.618 881.999 318.618 882.938V893.306C318.618 894.501 318.106 895.098 317.082 895.098C316.57 895.098 316.186 895.013 315.93 894.842L259.354 869.114ZM330.345 897.914C329.15 897.914 328.553 897.402 328.553 896.378C328.553 895.866 328.681 895.311 328.937 894.714L362.473 813.05C363.07 811.599 364.094 810.874 365.545 810.874H377.577C378.771 810.874 379.369 811.429 379.369 812.538C379.369 813.05 379.241 813.562 378.985 814.074L345.449 895.866C344.937 897.231 343.87 897.914 342.249 897.914H330.345ZM390.839 895.098C389.815 895.098 389.303 894.501 389.303 893.306V883.706C389.303 882.767 389.431 882.085 389.687 881.658C390.028 881.231 390.625 880.847 391.479 880.506L431.287 862.842L391.479 845.178C390.625 844.837 390.028 844.453 389.687 844.026C389.431 843.599 389.303 842.917 389.303 841.978V832.634C389.303 831.439 389.815 830.842 390.839 830.842L391.863 831.098L448.567 856.826C449.335 857.253 449.889 857.722 450.231 858.234C450.572 858.661 450.743 859.301 450.743 860.154V865.786C450.743 866.639 450.572 867.322 450.231 867.834C449.889 868.261 449.335 868.687 448.567 869.114L391.863 894.842L390.839 895.098Z" fill="white" fill-opacity="0.12"/>
<path d="M498.823 997.757C497.97 997.415 497.373 996.989 497.031 996.477C496.775 995.965 496.647 995.282 496.647 994.429V988.797C496.647 987.943 496.775 987.261 497.031 986.749C497.373 986.237 497.97 985.81 498.823 985.469L555.399 959.741C555.911 959.57 556.295 959.485 556.551 959.485C557.575 959.485 558.087 960.082 558.087 961.277V971.389C558.087 972.327 557.917 973.01 557.575 973.437C557.319 973.863 556.765 974.247 555.911 974.589L516.615 991.485L555.911 1008.38C556.765 1008.72 557.319 1009.11 557.575 1009.53C557.917 1009.96 558.087 1010.64 558.087 1011.58V1021.95C558.087 1023.14 557.575 1023.74 556.551 1023.74C556.039 1023.74 555.655 1023.66 555.399 1023.48L498.823 997.757ZM569.814 1026.56C568.62 1026.56 568.022 1026.04 568.022 1025.02C568.022 1024.51 568.15 1023.95 568.406 1023.36L601.942 941.693C602.54 940.242 603.564 939.517 605.014 939.517H617.046C618.241 939.517 618.838 940.071 618.838 941.181C618.838 941.693 618.71 942.205 618.454 942.717L584.918 1024.51C584.406 1025.87 583.34 1026.56 581.718 1026.56H569.814ZM630.308 1023.74C629.284 1023.74 628.772 1023.14 628.772 1021.95V1012.35C628.772 1011.41 628.9 1010.73 629.156 1010.3C629.498 1009.87 630.095 1009.49 630.948 1009.15L670.756 991.485L630.948 973.821C630.095 973.479 629.498 973.095 629.156 972.669C628.9 972.242 628.772 971.559 628.772 970.621V961.277C628.772 960.082 629.284 959.485 630.308 959.485L631.332 959.741L688.036 985.469C688.804 985.895 689.359 986.365 689.7 986.877C690.042 987.303 690.212 987.943 690.212 988.797V994.429C690.212 995.282 690.042 995.965 689.7 996.477C689.359 996.903 688.804 997.33 688.036 997.757L631.332 1023.48L630.308 1023.74Z" fill="white" fill-opacity="0.12"/>
<path d="M505.182 869.114C504.328 868.773 503.731 868.346 503.39 867.834C503.134 867.322 503.006 866.639 503.006 865.786V860.154C503.006 859.301 503.134 858.618 503.39 858.106C503.731 857.594 504.328 857.167 505.182 856.826L561.758 831.098C562.27 830.927 562.654 830.842 562.91 830.842C563.934 830.842 564.446 831.439 564.446 832.634V842.746C564.446 843.685 564.275 844.367 563.934 844.794C563.678 845.221 563.123 845.605 562.27 845.946L522.974 862.842L562.27 879.738C563.123 880.079 563.678 880.463 563.934 880.89C564.275 881.317 564.446 881.999 564.446 882.938V893.306C564.446 894.501 563.934 895.098 562.91 895.098C562.398 895.098 562.014 895.013 561.758 894.842L505.182 869.114ZM576.173 897.914C574.978 897.914 574.381 897.402 574.381 896.378C574.381 895.866 574.509 895.311 574.765 894.714L608.301 813.05C608.898 811.599 609.922 810.874 611.373 810.874H623.405C624.599 810.874 625.197 811.429 625.197 812.538C625.197 813.05 625.069 813.562 624.813 814.074L591.277 895.866C590.765 897.231 589.698 897.914 588.077 897.914H576.173ZM636.667 895.098C635.643 895.098 635.131 894.501 635.131 893.306V883.706C635.131 882.767 635.259 882.085 635.515 881.658C635.856 881.231 636.453 880.847 637.307 880.506L677.115 862.842L637.307 845.178C636.453 844.837 635.856 844.453 635.515 844.026C635.259 843.599 635.131 842.917 635.131 841.978V832.634C635.131 831.439 635.643 830.842 636.667 830.842L637.691 831.098L694.395 856.826C695.163 857.253 695.717 857.722 696.059 858.234C696.4 858.661 696.571 859.301 696.571 860.154V865.786C696.571 866.639 696.4 867.322 696.059 867.834C695.717 868.261 695.163 868.687 694.395 869.114L637.691 894.842L636.667 895.098Z" fill="white" fill-opacity="0.12"/>
<path d="M744.652 997.757C743.799 997.415 743.202 996.989 742.86 996.477C742.604 995.965 742.476 995.282 742.476 994.429V988.797C742.476 987.943 742.604 987.261 742.86 986.749C743.202 986.237 743.799 985.81 744.652 985.469L801.228 959.741C801.74 959.57 802.124 959.485 802.38 959.485C803.404 959.485 803.916 960.082 803.916 961.277V971.389C803.916 972.327 803.746 973.01 803.404 973.437C803.148 973.863 802.594 974.247 801.74 974.589L762.444 991.485L801.74 1008.38C802.594 1008.72 803.148 1009.11 803.404 1009.53C803.746 1009.96 803.916 1010.64 803.916 1011.58V1021.95C803.916 1023.14 803.404 1023.74 802.38 1023.74C801.868 1023.74 801.484 1023.66 801.228 1023.48L744.652 997.757ZM815.643 1026.56C814.449 1026.56 813.851 1026.04 813.851 1025.02C813.851 1024.51 813.979 1023.95 814.235 1023.36L847.771 941.693C848.369 940.242 849.393 939.517 850.843 939.517H862.875C864.07 939.517 864.667 940.071 864.667 941.181C864.667 941.693 864.539 942.205 864.283 942.717L830.747 1024.51C830.235 1025.87 829.169 1026.56 827.547 1026.56H815.643ZM876.137 1023.74C875.113 1023.74 874.601 1023.14 874.601 1021.95V1012.35C874.601 1011.41 874.729 1010.73 874.985 1010.3C875.327 1009.87 875.924 1009.49 876.777 1009.15L916.585 991.485L876.777 973.821C875.924 973.479 875.327 973.095 874.985 972.669C874.729 972.242 874.601 971.559 874.601 970.621V961.277C874.601 960.082 875.113 959.485 876.137 959.485L877.161 959.741L933.865 985.469C934.633 985.895 935.188 986.365 935.529 986.877C935.871 987.303 936.041 987.943 936.041 988.797V994.429C936.041 995.282 935.871 995.965 935.529 996.477C935.188 996.903 934.633 997.33 933.865 997.757L877.161 1023.48L876.137 1023.74Z" fill="white" fill-opacity="0.12"/>
<path d="M751.009 869.114C750.155 868.773 749.558 868.346 749.217 867.834C748.961 867.322 748.833 866.639 748.833 865.786V860.154C748.833 859.301 748.961 858.618 749.217 858.106C749.558 857.594 750.155 857.167 751.009 856.826L807.585 831.098C808.097 830.927 808.481 830.842 808.737 830.842C809.761 830.842 810.273 831.439 810.273 832.634V842.746C810.273 843.685 810.102 844.367 809.761 844.794C809.505 845.221 808.95 845.605 808.097 845.946L768.801 862.842L808.097 879.738C808.95 880.079 809.505 880.463 809.761 880.89C810.102 881.317 810.273 881.999 810.273 882.938V893.306C810.273 894.501 809.761 895.098 808.737 895.098C808.225 895.098 807.841 895.013 807.585 894.842L751.009 869.114ZM822 897.914C820.805 897.914 820.208 897.402 820.208 896.378C820.208 895.866 820.336 895.311 820.592 894.714L854.128 813.05C854.725 811.599 855.749 810.874 857.2 810.874H869.232C870.426 810.874 871.024 811.429 871.024 812.538C871.024 813.05 870.896 813.562 870.64 814.074L837.104 895.866C836.592 897.231 835.525 897.914 833.904 897.914H822ZM882.494 895.098C881.47 895.098 880.958 894.501 880.958 893.306V883.706C880.958 882.767 881.086 882.085 881.342 881.658C881.683 881.231 882.28 880.847 883.134 880.506L922.942 862.842L883.134 845.178C882.28 844.837 881.683 844.453 881.342 844.026C881.086 843.599 880.958 842.917 880.958 841.978V832.634C880.958 831.439 881.47 830.842 882.494 830.842L883.518 831.098L940.222 856.826C940.99 857.253 941.544 857.722 941.886 858.234C942.227 858.661 942.398 859.301 942.398 860.154V865.786C942.398 866.639 942.227 867.322 941.886 867.834C941.544 868.261 940.99 868.687 940.222 869.114L883.518 894.842L882.494 895.098Z" fill="white" fill-opacity="0.12"/>
<path d="M7.168 750.444C6.31467 750.102 5.71733 749.676 5.376 749.164C5.12 748.652 4.992 747.969 4.992 747.116V741.484C4.992 740.63 5.12 739.948 5.376 739.436C5.71733 738.924 6.31467 738.497 7.168 738.156L63.744 712.428C64.256 712.257 64.64 712.172 64.896 712.172C65.92 712.172 66.432 712.769 66.432 713.964V724.076C66.432 725.014 66.2613 725.697 65.92 726.124C65.664 726.55 65.1093 726.934 64.256 727.276L24.96 744.172L64.256 761.068C65.1093 761.409 65.664 761.793 65.92 762.22C66.2613 762.646 66.432 763.329 66.432 764.268V774.636C66.432 775.83 65.92 776.428 64.896 776.428C64.384 776.428 64 776.342 63.744 776.172L7.168 750.444ZM78.159 779.244C76.9643 779.244 76.367 778.732 76.367 777.708C76.367 777.196 76.495 776.641 76.751 776.044L110.287 694.38C110.884 692.929 111.908 692.204 113.359 692.204H125.391C126.586 692.204 127.183 692.758 127.183 693.868C127.183 694.38 127.055 694.892 126.799 695.404L93.263 777.196C92.751 778.561 91.6843 779.244 90.063 779.244H78.159ZM138.653 776.428C137.629 776.428 137.117 775.83 137.117 774.636V765.036C137.117 764.097 137.245 763.414 137.501 762.988C137.842 762.561 138.44 762.177 139.293 761.836L179.101 744.172L139.293 726.508C138.44 726.166 137.842 725.782 137.501 725.356C137.245 724.929 137.117 724.246 137.117 723.308V713.964C137.117 712.769 137.629 712.172 138.653 712.172L139.677 712.428L196.381 738.156C197.149 738.582 197.704 739.052 198.045 739.564C198.386 739.99 198.557 740.63 198.557 741.484V747.116C198.557 747.969 198.386 748.652 198.045 749.164C197.704 749.59 197.149 750.017 196.381 750.444L139.677 776.172L138.653 776.428Z" fill="white" fill-opacity="0.12"/>
<path d="M13.5264 621.801C12.6731 621.46 12.0757 621.033 11.7344 620.521C11.4784 620.009 11.3504 619.326 11.3504 618.473V612.841C11.3504 611.988 11.4784 611.305 11.7344 610.793C12.0757 610.281 12.6731 609.854 13.5264 609.513L70.1024 583.785C70.6144 583.614 70.9984 583.529 71.2544 583.529C72.2784 583.529 72.7904 584.126 72.7904 585.321V595.433C72.7904 596.372 72.6197 597.054 72.2784 597.481C72.0224 597.908 71.4677 598.292 70.6144 598.633L31.3184 615.529L70.6144 632.425C71.4677 632.766 72.0224 633.15 72.2784 633.577C72.6197 634.004 72.7904 634.686 72.7904 635.625V645.993C72.7904 647.188 72.2784 647.785 71.2544 647.785C70.7424 647.785 70.3584 647.7 70.1024 647.529L13.5264 621.801ZM84.5174 650.601C83.3227 650.601 82.7254 650.089 82.7254 649.065C82.7254 648.553 82.8534 647.998 83.1094 647.401L116.645 565.737C117.243 564.286 118.267 563.561 119.717 563.561H131.749C132.944 563.561 133.541 564.116 133.541 565.225C133.541 565.737 133.413 566.249 133.157 566.761L99.6214 648.553C99.1094 649.918 98.0427 650.601 96.4214 650.601H84.5174ZM145.011 647.785C143.987 647.785 143.475 647.188 143.475 645.993V636.393C143.475 635.454 143.603 634.772 143.859 634.345C144.201 633.918 144.798 633.534 145.651 633.193L185.459 615.529L145.651 597.865C144.798 597.524 144.201 597.14 143.859 596.713C143.603 596.286 143.475 595.604 143.475 594.665V585.321C143.475 584.126 143.987 583.529 145.011 583.529L146.035 583.785L202.739 609.513C203.507 609.94 204.062 610.409 204.403 610.921C204.745 611.348 204.915 611.988 204.915 612.841V618.473C204.915 619.326 204.745 620.009 204.403 620.521C204.062 620.948 203.507 621.374 202.739 621.801L146.035 647.529L145.011 647.785Z" fill="white" fill-opacity="0.12"/>
<path d="M252.996 750.444C252.143 750.102 251.545 749.676 251.204 749.164C250.948 748.652 250.82 747.969 250.82 747.116V741.484C250.82 740.63 250.948 739.948 251.204 739.436C251.545 738.924 252.143 738.497 252.996 738.156L309.572 712.428C310.084 712.257 310.468 712.172 310.724 712.172C311.748 712.172 312.26 712.769 312.26 713.964V724.076C312.26 725.014 312.089 725.697 311.748 726.124C311.492 726.55 310.937 726.934 310.084 727.276L270.788 744.172L310.084 761.068C310.937 761.409 311.492 761.793 311.748 762.22C312.089 762.646 312.26 763.329 312.26 764.268V774.636C312.26 775.83 311.748 776.428 310.724 776.428C310.212 776.428 309.828 776.342 309.572 776.172L252.996 750.444ZM323.987 779.244C322.792 779.244 322.195 778.732 322.195 777.708C322.195 777.196 322.323 776.641 322.579 776.044L356.115 694.38C356.712 692.929 357.736 692.204 359.187 692.204H371.219C372.414 692.204 373.011 692.758 373.011 693.868C373.011 694.38 372.883 694.892 372.627 695.404L339.091 777.196C338.579 778.561 337.512 779.244 335.891 779.244H323.987ZM384.481 776.428C383.457 776.428 382.945 775.83 382.945 774.636V765.036C382.945 764.097 383.073 763.414 383.329 762.988C383.67 762.561 384.268 762.177 385.121 761.836L424.929 744.172L385.121 726.508C384.268 726.166 383.67 725.782 383.329 725.356C383.073 724.929 382.945 724.246 382.945 723.308V713.964C382.945 712.769 383.457 712.172 384.481 712.172L385.505 712.428L442.209 738.156C442.977 738.582 443.532 739.052 443.873 739.564C444.214 739.99 444.385 740.63 444.385 741.484V747.116C444.385 747.969 444.214 748.652 443.873 749.164C443.532 749.59 442.977 750.017 442.209 750.444L385.505 776.172L384.481 776.428Z" fill="white" fill-opacity="0.12"/>
<path d="M259.354 621.801C258.5 621.46 257.903 621.033 257.562 620.521C257.306 620.009 257.178 619.326 257.178 618.473V612.841C257.178 611.988 257.306 611.305 257.562 610.793C257.903 610.281 258.5 609.854 259.354 609.513L315.93 583.785C316.442 583.614 316.826 583.529 317.082 583.529C318.106 583.529 318.618 584.126 318.618 585.321V595.433C318.618 596.372 318.447 597.054 318.106 597.481C317.85 597.908 317.295 598.292 316.442 598.633L277.146 615.529L316.442 632.425C317.295 632.766 317.85 633.15 318.106 633.577C318.447 634.004 318.618 634.686 318.618 635.625V645.993C318.618 647.188 318.106 647.785 317.082 647.785C316.57 647.785 316.186 647.7 315.93 647.529L259.354 621.801ZM330.345 650.601C329.15 650.601 328.553 650.089 328.553 649.065C328.553 648.553 328.681 647.998 328.937 647.401L362.473 565.737C363.07 564.286 364.094 563.561 365.545 563.561H377.577C378.771 563.561 379.369 564.116 379.369 565.225C379.369 565.737 379.241 566.249 378.985 566.761L345.449 648.553C344.937 649.918 343.87 650.601 342.249 650.601H330.345ZM390.839 647.785C389.815 647.785 389.303 647.188 389.303 645.993V636.393C389.303 635.454 389.431 634.772 389.687 634.345C390.028 633.918 390.625 633.534 391.479 633.193L431.287 615.529L391.479 597.865C390.625 597.524 390.028 597.14 389.687 596.713C389.431 596.286 389.303 595.604 389.303 594.665V585.321C389.303 584.126 389.815 583.529 390.839 583.529L391.863 583.785L448.567 609.513C449.335 609.94 449.889 610.409 450.231 610.921C450.572 611.348 450.743 611.988 450.743 612.841V618.473C450.743 619.326 450.572 620.009 450.231 620.521C449.889 620.948 449.335 621.374 448.567 621.801L391.863 647.529L390.839 647.785Z" fill="white" fill-opacity="0.12"/>
<path d="M498.823 750.444C497.97 750.102 497.373 749.676 497.031 749.164C496.775 748.652 496.647 747.969 496.647 747.116V741.484C496.647 740.63 496.775 739.948 497.031 739.436C497.373 738.924 497.97 738.497 498.823 738.156L555.399 712.428C555.911 712.257 556.295 712.172 556.551 712.172C557.575 712.172 558.087 712.769 558.087 713.964V724.076C558.087 725.014 557.917 725.697 557.575 726.124C557.319 726.55 556.765 726.934 555.911 727.276L516.615 744.172L555.911 761.068C556.765 761.409 557.319 761.793 557.575 762.22C557.917 762.646 558.087 763.329 558.087 764.268V774.636C558.087 775.83 557.575 776.428 556.551 776.428C556.039 776.428 555.655 776.342 555.399 776.172L498.823 750.444ZM569.814 779.244C568.62 779.244 568.022 778.732 568.022 777.708C568.022 777.196 568.15 776.641 568.406 776.044L601.942 694.38C602.54 692.929 603.564 692.204 605.014 692.204H617.046C618.241 692.204 618.838 692.758 618.838 693.868C618.838 694.38 618.71 694.892 618.454 695.404L584.918 777.196C584.406 778.561 583.34 779.244 581.718 779.244H569.814ZM630.308 776.428C629.284 776.428 628.772 775.83 628.772 774.636V765.036C628.772 764.097 628.9 763.414 629.156 762.988C629.498 762.561 630.095 762.177 630.948 761.836L670.756 744.172L630.948 726.508C630.095 726.166 629.498 725.782 629.156 725.356C628.9 724.929 628.772 724.246 628.772 723.308V713.964C628.772 712.769 629.284 712.172 630.308 712.172L631.332 712.428L688.036 738.156C688.804 738.582 689.359 739.052 689.7 739.564C690.042 739.99 690.212 740.63 690.212 741.484V747.116C690.212 747.969 690.042 748.652 689.7 749.164C689.359 749.59 688.804 750.017 688.036 750.444L631.332 776.172L630.308 776.428Z" fill="white" fill-opacity="0.12"/>
<path d="M505.182 621.801C504.328 621.46 503.731 621.033 503.39 620.521C503.134 620.009 503.006 619.326 503.006 618.473V612.841C503.006 611.988 503.134 611.305 503.39 610.793C503.731 610.281 504.328 609.854 505.182 609.513L561.758 583.785C562.27 583.614 562.654 583.529 562.91 583.529C563.934 583.529 564.446 584.126 564.446 585.321V595.433C564.446 596.372 564.275 597.054 563.934 597.481C563.678 597.908 563.123 598.292 562.27 598.633L522.974 615.529L562.27 632.425C563.123 632.766 563.678 633.15 563.934 633.577C564.275 634.004 564.446 634.686 564.446 635.625V645.993C564.446 647.188 563.934 647.785 562.91 647.785C562.398 647.785 562.014 647.7 561.758 647.529L505.182 621.801ZM576.173 650.601C574.978 650.601 574.381 650.089 574.381 649.065C574.381 648.553 574.509 647.998 574.765 647.401L608.301 565.737C608.898 564.286 609.922 563.561 611.373 563.561H623.405C624.599 563.561 625.197 564.116 625.197 565.225C625.197 565.737 625.069 566.249 624.813 566.761L591.277 648.553C590.765 649.918 589.698 650.601 588.077 650.601H576.173ZM636.667 647.785C635.643 647.785 635.131 647.188 635.131 645.993V636.393C635.131 635.454 635.259 634.772 635.515 634.345C635.856 633.918 636.453 633.534 637.307 633.193L677.115 615.529L637.307 597.865C636.453 597.524 635.856 597.14 635.515 596.713C635.259 596.286 635.131 595.604 635.131 594.665V585.321C635.131 584.126 635.643 583.529 636.667 583.529L637.691 583.785L694.395 609.513C695.163 609.94 695.717 610.409 696.059 610.921C696.4 611.348 696.571 611.988 696.571 612.841V618.473C696.571 619.326 696.4 620.009 696.059 620.521C695.717 620.948 695.163 621.374 694.395 621.801L637.691 647.529L636.667 647.785Z" fill="white" fill-opacity="0.12"/>
<path d="M744.652 750.444C743.799 750.102 743.202 749.676 742.86 749.164C742.604 748.652 742.476 747.969 742.476 747.116V741.484C742.476 740.63 742.604 739.948 742.86 739.436C743.202 738.924 743.799 738.497 744.652 738.156L801.228 712.428C801.74 712.257 802.124 712.172 802.38 712.172C803.404 712.172 803.916 712.769 803.916 713.964V724.076C803.916 725.014 803.746 725.697 803.404 726.124C803.148 726.55 802.594 726.934 801.74 727.276L762.444 744.172L801.74 761.068C802.594 761.409 803.148 761.793 803.404 762.22C803.746 762.646 803.916 763.329 803.916 764.268V774.636C803.916 775.83 803.404 776.428 802.38 776.428C801.868 776.428 801.484 776.342 801.228 776.172L744.652 750.444ZM815.643 779.244C814.449 779.244 813.851 778.732 813.851 777.708C813.851 777.196 813.979 776.641 814.235 776.044L847.771 694.38C848.369 692.929 849.393 692.204 850.843 692.204H862.875C864.07 692.204 864.667 692.758 864.667 693.868C864.667 694.38 864.539 694.892 864.283 695.404L830.747 777.196C830.235 778.561 829.169 779.244 827.547 779.244H815.643ZM876.137 776.428C875.113 776.428 874.601 775.83 874.601 774.636V765.036C874.601 764.097 874.729 763.414 874.985 762.988C875.327 762.561 875.924 762.177 876.777 761.836L916.585 744.172L876.777 726.508C875.924 726.166 875.327 725.782 874.985 725.356C874.729 724.929 874.601 724.246 874.601 723.308V713.964C874.601 712.769 875.113 712.172 876.137 712.172L877.161 712.428L933.865 738.156C934.633 738.582 935.188 739.052 935.529 739.564C935.871 739.99 936.041 740.63 936.041 741.484V747.116C936.041 747.969 935.871 748.652 935.529 749.164C935.188 749.59 934.633 750.017 933.865 750.444L877.161 776.172L876.137 776.428Z" fill="white" fill-opacity="0.12"/>
<path d="M751.009 621.801C750.155 621.46 749.558 621.033 749.217 620.521C748.961 620.009 748.833 619.326 748.833 618.473V612.841C748.833 611.988 748.961 611.305 749.217 610.793C749.558 610.281 750.155 609.854 751.009 609.513L807.585 583.785C808.097 583.614 808.481 583.529 808.737 583.529C809.761 583.529 810.273 584.126 810.273 585.321V595.433C810.273 596.372 810.102 597.054 809.761 597.481C809.505 597.908 808.95 598.292 808.097 598.633L768.801 615.529L808.097 632.425C808.95 632.766 809.505 633.15 809.761 633.577C810.102 634.004 810.273 634.686 810.273 635.625V645.993C810.273 647.188 809.761 647.785 808.737 647.785C808.225 647.785 807.841 647.7 807.585 647.529L751.009 621.801ZM822 650.601C820.805 650.601 820.208 650.089 820.208 649.065C820.208 648.553 820.336 647.998 820.592 647.401L854.128 565.737C854.725 564.286 855.749 563.561 857.2 563.561H869.232C870.426 563.561 871.024 564.116 871.024 565.225C871.024 565.737 870.896 566.249 870.64 566.761L837.104 648.553C836.592 649.918 835.525 650.601 833.904 650.601H822ZM882.494 647.785C881.47 647.785 880.958 647.188 880.958 645.993V636.393C880.958 635.454 881.086 634.772 881.342 634.345C881.683 633.918 882.28 633.534 883.134 633.193L922.942 615.529L883.134 597.865C882.28 597.524 881.683 597.14 881.342 596.713C881.086 596.286 880.958 595.604 880.958 594.665V585.321C880.958 584.126 881.47 583.529 882.494 583.529L883.518 583.785L940.222 609.513C940.99 609.94 941.544 610.409 941.886 610.921C942.227 611.348 942.398 611.988 942.398 612.841V618.473C942.398 619.326 942.227 620.009 941.886 620.521C941.544 620.948 940.99 621.374 940.222 621.801L883.518 647.529L882.494 647.785Z" fill="white" fill-opacity="0.12"/>
<path d="M7.168 494.156C6.31467 493.814 5.71733 493.388 5.376 492.876C5.12 492.364 4.992 491.681 4.992 490.828V485.196C4.992 484.342 5.12 483.66 5.376 483.148C5.71733 482.636 6.31467 482.209 7.168 481.868L63.744 456.14C64.256 455.969 64.64 455.884 64.896 455.884C65.92 455.884 66.432 456.481 66.432 457.676V467.788C66.432 468.726 66.2613 469.409 65.92 469.836C65.664 470.262 65.1093 470.646 64.256 470.988L24.96 487.884L64.256 504.78C65.1093 505.121 65.664 505.505 65.92 505.932C66.2613 506.358 66.432 507.041 66.432 507.98V518.348C66.432 519.542 65.92 520.14 64.896 520.14C64.384 520.14 64 520.054 63.744 519.884L7.168 494.156ZM78.159 522.956C76.9643 522.956 76.367 522.444 76.367 521.42C76.367 520.908 76.495 520.353 76.751 519.756L110.287 438.092C110.884 436.641 111.908 435.916 113.359 435.916H125.391C126.586 435.916 127.183 436.47 127.183 437.58C127.183 438.092 127.055 438.604 126.799 439.116L93.263 520.908C92.751 522.273 91.6843 522.956 90.063 522.956H78.159ZM138.653 520.14C137.629 520.14 137.117 519.542 137.117 518.348V508.748C137.117 507.809 137.245 507.126 137.501 506.7C137.842 506.273 138.44 505.889 139.293 505.548L179.101 487.884L139.293 470.22C138.44 469.878 137.842 469.494 137.501 469.068C137.245 468.641 137.117 467.958 137.117 467.02V457.676C137.117 456.481 137.629 455.884 138.653 455.884L139.677 456.14L196.381 481.868C197.149 482.294 197.704 482.764 198.045 483.276C198.386 483.702 198.557 484.342 198.557 485.196V490.828C198.557 491.681 198.386 492.364 198.045 492.876C197.704 493.302 197.149 493.729 196.381 494.156L139.677 519.884L138.653 520.14Z" fill="white" fill-opacity="0.12"/>
<path d="M13.5264 365.513C12.6731 365.172 12.0757 364.745 11.7344 364.233C11.4784 363.721 11.3504 363.038 11.3504 362.185V356.553C11.3504 355.7 11.4784 355.017 11.7344 354.505C12.0757 353.993 12.6731 353.566 13.5264 353.225L70.1024 327.497C70.6144 327.326 70.9984 327.241 71.2544 327.241C72.2784 327.241 72.7904 327.838 72.7904 329.033V339.145C72.7904 340.084 72.6197 340.766 72.2784 341.193C72.0224 341.62 71.4677 342.004 70.6144 342.345L31.3184 359.241L70.6144 376.137C71.4677 376.478 72.0224 376.862 72.2784 377.289C72.6197 377.716 72.7904 378.398 72.7904 379.337V389.705C72.7904 390.9 72.2784 391.497 71.2544 391.497C70.7424 391.497 70.3584 391.412 70.1024 391.241L13.5264 365.513ZM84.5174 394.313C83.3227 394.313 82.7254 393.801 82.7254 392.777C82.7254 392.265 82.8534 391.71 83.1094 391.113L116.645 309.449C117.243 307.998 118.267 307.273 119.717 307.273H131.749C132.944 307.273 133.541 307.828 133.541 308.937C133.541 309.449 133.413 309.961 133.157 310.473L99.6214 392.265C99.1094 393.63 98.0427 394.313 96.4214 394.313H84.5174ZM145.011 391.497C143.987 391.497 143.475 390.9 143.475 389.705V380.105C143.475 379.166 143.603 378.484 143.859 378.057C144.201 377.63 144.798 377.246 145.651 376.905L185.459 359.241L145.651 341.577C144.798 341.236 144.201 340.852 143.859 340.425C143.603 339.998 143.475 339.316 143.475 338.377V329.033C143.475 327.838 143.987 327.241 145.011 327.241L146.035 327.497L202.739 353.225C203.507 353.652 204.062 354.121 204.403 354.633C204.745 355.06 204.915 355.7 204.915 356.553V362.185C204.915 363.038 204.745 363.721 204.403 364.233C204.062 364.66 203.507 365.086 202.739 365.513L146.035 391.241L145.011 391.497Z" fill="white" fill-opacity="0.12"/>
<path d="M252.996 494.156C252.143 493.814 251.545 493.388 251.204 492.876C250.948 492.364 250.82 491.681 250.82 490.828V485.196C250.82 484.342 250.948 483.66 251.204 483.148C251.545 482.636 252.143 482.209 252.996 481.868L309.572 456.14C310.084 455.969 310.468 455.884 310.724 455.884C311.748 455.884 312.26 456.481 312.26 457.676V467.788C312.26 468.726 312.089 469.409 311.748 469.836C311.492 470.262 310.937 470.646 310.084 470.988L270.788 487.884L310.084 504.78C310.937 505.121 311.492 505.505 311.748 505.932C312.089 506.358 312.26 507.041 312.26 507.98V518.348C312.26 519.542 311.748 520.14 310.724 520.14C310.212 520.14 309.828 520.054 309.572 519.884L252.996 494.156ZM323.987 522.956C322.792 522.956 322.195 522.444 322.195 521.42C322.195 520.908 322.323 520.353 322.579 519.756L356.115 438.092C356.712 436.641 357.736 435.916 359.187 435.916H371.219C372.414 435.916 373.011 436.47 373.011 437.58C373.011 438.092 372.883 438.604 372.627 439.116L339.091 520.908C338.579 522.273 337.512 522.956 335.891 522.956H323.987ZM384.481 520.14C383.457 520.14 382.945 519.542 382.945 518.348V508.748C382.945 507.809 383.073 507.126 383.329 506.7C383.67 506.273 384.268 505.889 385.121 505.548L424.929 487.884L385.121 470.22C384.268 469.878 383.67 469.494 383.329 469.068C383.073 468.641 382.945 467.958 382.945 467.02V457.676C382.945 456.481 383.457 455.884 384.481 455.884L385.505 456.14L442.209 481.868C442.977 482.294 443.532 482.764 443.873 483.276C444.214 483.702 444.385 484.342 444.385 485.196V490.828C444.385 491.681 444.214 492.364 443.873 492.876C443.532 493.302 442.977 493.729 442.209 494.156L385.505 519.884L384.481 520.14Z" fill="white" fill-opacity="0.12"/>
<path d="M259.354 365.513C258.5 365.172 257.903 364.745 257.562 364.233C257.306 363.721 257.178 363.038 257.178 362.185V356.553C257.178 355.7 257.306 355.017 257.562 354.505C257.903 353.993 258.5 353.566 259.354 353.225L315.93 327.497C316.442 327.326 316.826 327.241 317.082 327.241C318.106 327.241 318.618 327.838 318.618 329.033V339.145C318.618 340.084 318.447 340.766 318.106 341.193C317.85 341.62 317.295 342.004 316.442 342.345L277.146 359.241L316.442 376.137C317.295 376.478 317.85 376.862 318.106 377.289C318.447 377.716 318.618 378.398 318.618 379.337V389.705C318.618 390.9 318.106 391.497 317.082 391.497C316.57 391.497 316.186 391.412 315.93 391.241L259.354 365.513ZM330.345 394.313C329.15 394.313 328.553 393.801 328.553 392.777C328.553 392.265 328.681 391.71 328.937 391.113L362.473 309.449C363.07 307.998 364.094 307.273 365.545 307.273H377.577C378.771 307.273 379.369 307.828 379.369 308.937C379.369 309.449 379.241 309.961 378.985 310.473L345.449 392.265C344.937 393.63 343.87 394.313 342.249 394.313H330.345ZM390.839 391.497C389.815 391.497 389.303 390.9 389.303 389.705V380.105C389.303 379.166 389.431 378.484 389.687 378.057C390.028 377.63 390.625 377.246 391.479 376.905L431.287 359.241L391.479 341.577C390.625 341.236 390.028 340.852 389.687 340.425C389.431 339.998 389.303 339.316 389.303 338.377V329.033C389.303 327.838 389.815 327.241 390.839 327.241L391.863 327.497L448.567 353.225C449.335 353.652 449.889 354.121 450.231 354.633C450.572 355.06 450.743 355.7 450.743 356.553V362.185C450.743 363.038 450.572 363.721 450.231 364.233C449.889 364.66 449.335 365.086 448.567 365.513L391.863 391.241L390.839 391.497Z" fill="white" fill-opacity="0.12"/>
<path d="M498.823 494.156C497.97 493.814 497.373 493.388 497.031 492.876C496.775 492.364 496.647 491.681 496.647 490.828V485.196C496.647 484.342 496.775 483.66 497.031 483.148C497.373 482.636 497.97 482.209 498.823 481.868L555.399 456.14C555.911 455.969 556.295 455.884 556.551 455.884C557.575 455.884 558.087 456.481 558.087 457.676V467.788C558.087 468.726 557.917 469.409 557.575 469.836C557.319 470.262 556.765 470.646 555.911 470.988L516.615 487.884L555.911 504.78C556.765 505.121 557.319 505.505 557.575 505.932C557.917 506.358 558.087 507.041 558.087 507.98V518.348C558.087 519.542 557.575 520.14 556.551 520.14C556.039 520.14 555.655 520.054 555.399 519.884L498.823 494.156ZM569.814 522.956C568.62 522.956 568.022 522.444 568.022 521.42C568.022 520.908 568.15 520.353 568.406 519.756L601.942 438.092C602.54 436.641 603.564 435.916 605.014 435.916H617.046C618.241 435.916 618.838 436.47 618.838 437.58C618.838 438.092 618.71 438.604 618.454 439.116L584.918 520.908C584.406 522.273 583.34 522.956 581.718 522.956H569.814ZM630.308 520.14C629.284 520.14 628.772 519.542 628.772 518.348V508.748C628.772 507.809 628.9 507.126 629.156 506.7C629.498 506.273 630.095 505.889 630.948 505.548L670.756 487.884L630.948 470.22C630.095 469.878 629.498 469.494 629.156 469.068C628.9 468.641 628.772 467.958 628.772 467.02V457.676C628.772 456.481 629.284 455.884 630.308 455.884L631.332 456.14L688.036 481.868C688.804 482.294 689.359 482.764 689.7 483.276C690.042 483.702 690.212 484.342 690.212 485.196V490.828C690.212 491.681 690.042 492.364 689.7 492.876C689.359 493.302 688.804 493.729 688.036 494.156L631.332 519.884L630.308 520.14Z" fill="white" fill-opacity="0.12"/>
<path d="M505.182 365.513C504.328 365.172 503.731 364.745 503.39 364.233C503.134 363.721 503.006 363.038 503.006 362.185V356.553C503.006 355.7 503.134 355.017 503.39 354.505C503.731 353.993 504.328 353.566 505.182 353.225L561.758 327.497C562.27 327.326 562.654 327.241 562.91 327.241C563.934 327.241 564.446 327.838 564.446 329.033V339.145C564.446 340.084 564.275 340.766 563.934 341.193C563.678 341.62 563.123 342.004 562.27 342.345L522.974 359.241L562.27 376.137C563.123 376.478 563.678 376.862 563.934 377.289C564.275 377.716 564.446 378.398 564.446 379.337V389.705C564.446 390.9 563.934 391.497 562.91 391.497C562.398 391.497 562.014 391.412 561.758 391.241L505.182 365.513ZM576.173 394.313C574.978 394.313 574.381 393.801 574.381 392.777C574.381 392.265 574.509 391.71 574.765 391.113L608.301 309.449C608.898 307.998 609.922 307.273 611.373 307.273H623.405C624.599 307.273 625.197 307.828 625.197 308.937C625.197 309.449 625.069 309.961 624.813 310.473L591.277 392.265C590.765 393.63 589.698 394.313 588.077 394.313H576.173ZM636.667 391.497C635.643 391.497 635.131 390.9 635.131 389.705V380.105C635.131 379.166 635.259 378.484 635.515 378.057C635.856 377.63 636.453 377.246 637.307 376.905L677.115 359.241L637.307 341.577C636.453 341.236 635.856 340.852 635.515 340.425C635.259 339.998 635.131 339.316 635.131 338.377V329.033C635.131 327.838 635.643 327.241 636.667 327.241L637.691 327.497L694.395 353.225C695.163 353.652 695.717 354.121 696.059 354.633C696.4 355.06 696.571 355.7 696.571 356.553V362.185C696.571 363.038 696.4 363.721 696.059 364.233C695.717 364.66 695.163 365.086 694.395 365.513L637.691 391.241L636.667 391.497Z" fill="white" fill-opacity="0.12"/>
<path d="M744.652 494.156C743.799 493.814 743.202 493.388 742.86 492.876C742.604 492.364 742.476 491.681 742.476 490.828V485.196C742.476 484.342 742.604 483.66 742.86 483.148C743.202 482.636 743.799 482.209 744.652 481.868L801.228 456.14C801.74 455.969 802.124 455.884 802.38 455.884C803.404 455.884 803.916 456.481 803.916 457.676V467.788C803.916 468.726 803.746 469.409 803.404 469.836C803.148 470.262 802.594 470.646 801.74 470.988L762.444 487.884L801.74 504.78C802.594 505.121 803.148 505.505 803.404 505.932C803.746 506.358 803.916 507.041 803.916 507.98V518.348C803.916 519.542 803.404 520.14 802.38 520.14C801.868 520.14 801.484 520.054 801.228 519.884L744.652 494.156ZM815.643 522.956C814.449 522.956 813.851 522.444 813.851 521.42C813.851 520.908 813.979 520.353 814.235 519.756L847.771 438.092C848.369 436.641 849.393 435.916 850.843 435.916H862.875C864.07 435.916 864.667 436.47 864.667 437.58C864.667 438.092 864.539 438.604 864.283 439.116L830.747 520.908C830.235 522.273 829.169 522.956 827.547 522.956H815.643ZM876.137 520.14C875.113 520.14 874.601 519.542 874.601 518.348V508.748C874.601 507.809 874.729 507.126 874.985 506.7C875.327 506.273 875.924 505.889 876.777 505.548L916.585 487.884L876.777 470.22C875.924 469.878 875.327 469.494 874.985 469.068C874.729 468.641 874.601 467.958 874.601 467.02V457.676C874.601 456.481 875.113 455.884 876.137 455.884L877.161 456.14L933.865 481.868C934.633 482.294 935.188 482.764 935.529 483.276C935.871 483.702 936.041 484.342 936.041 485.196V490.828C936.041 491.681 935.871 492.364 935.529 492.876C935.188 493.302 934.633 493.729 933.865 494.156L877.161 519.884L876.137 520.14Z" fill="white" fill-opacity="0.12"/>
<path d="M751.009 365.513C750.155 365.172 749.558 364.745 749.217 364.233C748.961 363.721 748.833 363.038 748.833 362.185V356.553C748.833 355.7 748.961 355.017 749.217 354.505C749.558 353.993 750.155 353.566 751.009 353.225L807.585 327.497C808.097 327.326 808.481 327.241 808.737 327.241C809.761 327.241 810.273 327.838 810.273 329.033V339.145C810.273 340.084 810.102 340.766 809.761 341.193C809.505 341.62 808.95 342.004 808.097 342.345L768.801 359.241L808.097 376.137C808.95 376.478 809.505 376.862 809.761 377.289C810.102 377.716 810.273 378.398 810.273 379.337V389.705C810.273 390.9 809.761 391.497 808.737 391.497C808.225 391.497 807.841 391.412 807.585 391.241L751.009 365.513ZM822 394.313C820.805 394.313 820.208 393.801 820.208 392.777C820.208 392.265 820.336 391.71 820.592 391.113L854.128 309.449C854.725 307.998 855.749 307.273 857.2 307.273H869.232C870.426 307.273 871.024 307.828 871.024 308.937C871.024 309.449 870.896 309.961 870.64 310.473L837.104 392.265C836.592 393.63 835.525 394.313 833.904 394.313H822ZM882.494 391.497C881.47 391.497 880.958 390.9 880.958 389.705V380.105C880.958 379.166 881.086 378.484 881.342 378.057C881.683 377.63 882.28 377.246 883.134 376.905L922.942 359.241L883.134 341.577C882.28 341.236 881.683 340.852 881.342 340.425C881.086 339.998 880.958 339.316 880.958 338.377V329.033C880.958 327.838 881.47 327.241 882.494 327.241L883.518 327.497L940.222 353.225C940.99 353.652 941.544 354.121 941.886 354.633C942.227 355.06 942.398 355.7 942.398 356.553V362.185C942.398 363.038 942.227 363.721 941.886 364.233C941.544 364.66 940.99 365.086 940.222 365.513L883.518 391.241L882.494 391.497Z" fill="white" fill-opacity="0.12"/>
<path d="M7.168 246.843C6.31467 246.501 5.71733 246.075 5.376 245.563C5.12 245.051 4.992 244.368 4.992 243.515V237.883C4.992 237.029 5.12 236.347 5.376 235.835C5.71733 235.323 6.31467 234.896 7.168 234.555L63.744 208.827C64.256 208.656 64.64 208.571 64.896 208.571C65.92 208.571 66.432 209.168 66.432 210.363V220.475C66.432 221.413 66.2613 222.096 65.92 222.523C65.664 222.949 65.1093 223.333 64.256 223.675L24.96 240.571L64.256 257.467C65.1093 257.808 65.664 258.192 65.92 258.619C66.2613 259.045 66.432 259.728 66.432 260.667V271.035C66.432 272.229 65.92 272.827 64.896 272.827C64.384 272.827 64 272.741 63.744 272.571L7.168 246.843ZM78.159 275.643C76.9643 275.643 76.367 275.131 76.367 274.107C76.367 273.595 76.495 273.04 76.751 272.443L110.287 190.779C110.884 189.328 111.908 188.603 113.359 188.603H125.391C126.586 188.603 127.183 189.157 127.183 190.267C127.183 190.779 127.055 191.291 126.799 191.803L93.263 273.595C92.751 274.96 91.6843 275.643 90.063 275.643H78.159ZM138.653 272.827C137.629 272.827 137.117 272.229 137.117 271.035V261.435C137.117 260.496 137.245 259.813 137.501 259.387C137.842 258.96 138.44 258.576 139.293 258.235L179.101 240.571L139.293 222.907C138.44 222.565 137.842 222.181 137.501 221.755C137.245 221.328 137.117 220.645 137.117 219.707V210.363C137.117 209.168 137.629 208.571 138.653 208.571L139.677 208.827L196.381 234.555C197.149 234.981 197.704 235.451 198.045 235.963C198.386 236.389 198.557 237.029 198.557 237.883V243.515C198.557 244.368 198.386 245.051 198.045 245.563C197.704 245.989 197.149 246.416 196.381 246.843L139.677 272.571L138.653 272.827Z" fill="white" fill-opacity="0.12"/>
<path d="M13.5264 118.2C12.6731 117.859 12.0757 117.432 11.7344 116.92C11.4784 116.408 11.3504 115.725 11.3504 114.872V109.24C11.3504 108.387 11.4784 107.704 11.7344 107.192C12.0757 106.68 12.6731 106.253 13.5264 105.912L70.1024 80.184C70.6144 80.0133 70.9984 79.928 71.2544 79.928C72.2784 79.928 72.7904 80.5253 72.7904 81.72V91.832C72.7904 92.7707 72.6197 93.4533 72.2784 93.88C72.0224 94.3067 71.4677 94.6907 70.6144 95.032L31.3184 111.928L70.6144 128.824C71.4677 129.165 72.0224 129.549 72.2784 129.976C72.6197 130.403 72.7904 131.085 72.7904 132.024V142.392C72.7904 143.587 72.2784 144.184 71.2544 144.184C70.7424 144.184 70.3584 144.099 70.1024 143.928L13.5264 118.2ZM84.5174 147C83.3227 147 82.7254 146.488 82.7254 145.464C82.7254 144.952 82.8534 144.397 83.1094 143.8L116.645 62.136C117.243 60.6853 118.267 59.96 119.717 59.96H131.749C132.944 59.96 133.541 60.5147 133.541 61.624C133.541 62.136 133.413 62.648 133.157 63.16L99.6214 144.952C99.1094 146.317 98.0427 147 96.4214 147H84.5174ZM145.011 144.184C143.987 144.184 143.475 143.587 143.475 142.392V132.792C143.475 131.853 143.603 131.171 143.859 130.744C144.201 130.317 144.798 129.933 145.651 129.592L185.459 111.928L145.651 94.264C144.798 93.9227 144.201 93.5387 143.859 93.112C143.603 92.6853 143.475 92.0027 143.475 91.064V81.72C143.475 80.5253 143.987 79.928 145.011 79.928L146.035 80.184L202.739 105.912C203.507 106.339 204.062 106.808 204.403 107.32C204.745 107.747 204.915 108.387 204.915 109.24V114.872C204.915 115.725 204.745 116.408 204.403 116.92C204.062 117.347 203.507 117.773 202.739 118.2L146.035 143.928L145.011 144.184Z" fill="white" fill-opacity="0.12"/>
<path d="M252.996 246.843C252.143 246.501 251.545 246.075 251.204 245.563C250.948 245.051 250.82 244.368 250.82 243.515V237.883C250.82 237.029 250.948 236.347 251.204 235.835C251.545 235.323 252.143 234.896 252.996 234.555L309.572 208.827C310.084 208.656 310.468 208.571 310.724 208.571C311.748 208.571 312.26 209.168 312.26 210.363V220.475C312.26 221.413 312.089 222.096 311.748 222.523C311.492 222.949 310.937 223.333 310.084 223.675L270.788 240.571L310.084 257.467C310.937 257.808 311.492 258.192 311.748 258.619C312.089 259.045 312.26 259.728 312.26 260.667V271.035C312.26 272.229 311.748 272.827 310.724 272.827C310.212 272.827 309.828 272.741 309.572 272.571L252.996 246.843ZM323.987 275.643C322.792 275.643 322.195 275.131 322.195 274.107C322.195 273.595 322.323 273.04 322.579 272.443L356.115 190.779C356.712 189.328 357.736 188.603 359.187 188.603H371.219C372.414 188.603 373.011 189.157 373.011 190.267C373.011 190.779 372.883 191.291 372.627 191.803L339.091 273.595C338.579 274.96 337.512 275.643 335.891 275.643H323.987ZM384.481 272.827C383.457 272.827 382.945 272.229 382.945 271.035V261.435C382.945 260.496 383.073 259.813 383.329 259.387C383.67 258.96 384.268 258.576 385.121 258.235L424.929 240.571L385.121 222.907C384.268 222.565 383.67 222.181 383.329 221.755C383.073 221.328 382.945 220.645 382.945 219.707V210.363C382.945 209.168 383.457 208.571 384.481 208.571L385.505 208.827L442.209 234.555C442.977 234.981 443.532 235.451 443.873 235.963C444.214 236.389 444.385 237.029 444.385 237.883V243.515C444.385 244.368 444.214 245.051 443.873 245.563C443.532 245.989 442.977 246.416 442.209 246.843L385.505 272.571L384.481 272.827Z" fill="white" fill-opacity="0.12"/>
<path d="M259.354 118.2C258.5 117.859 257.903 117.432 257.562 116.92C257.306 116.408 257.178 115.725 257.178 114.872V109.24C257.178 108.387 257.306 107.704 257.562 107.192C257.903 106.68 258.5 106.253 259.354 105.912L315.93 80.184C316.442 80.0133 316.826 79.928 317.082 79.928C318.106 79.928 318.618 80.5253 318.618 81.72V91.832C318.618 92.7707 318.447 93.4533 318.106 93.88C317.85 94.3067 317.295 94.6907 316.442 95.032L277.146 111.928L316.442 128.824C317.295 129.165 317.85 129.549 318.106 129.976C318.447 130.403 318.618 131.085 318.618 132.024V142.392C318.618 143.587 318.106 144.184 317.082 144.184C316.57 144.184 316.186 144.099 315.93 143.928L259.354 118.2ZM330.345 147C329.15 147 328.553 146.488 328.553 145.464C328.553 144.952 328.681 144.397 328.937 143.8L362.473 62.136C363.07 60.6853 364.094 59.96 365.545 59.96H377.577C378.771 59.96 379.369 60.5147 379.369 61.624C379.369 62.136 379.241 62.648 378.985 63.16L345.449 144.952C344.937 146.317 343.87 147 342.249 147H330.345ZM390.839 144.184C389.815 144.184 389.303 143.587 389.303 142.392V132.792C389.303 131.853 389.431 131.171 389.687 130.744C390.028 130.317 390.625 129.933 391.479 129.592L431.287 111.928L391.479 94.264C390.625 93.9227 390.028 93.5387 389.687 93.112C389.431 92.6853 389.303 92.0027 389.303 91.064V81.72C389.303 80.5253 389.815 79.928 390.839 79.928L391.863 80.184L448.567 105.912C449.335 106.339 449.889 106.808 450.231 107.32C450.572 107.747 450.743 108.387 450.743 109.24V114.872C450.743 115.725 450.572 116.408 450.231 116.92C449.889 117.347 449.335 117.773 448.567 118.2L391.863 143.928L390.839 144.184Z" fill="white" fill-opacity="0.12"/>
<path d="M498.823 246.843C497.97 246.501 497.373 246.075 497.031 245.563C496.775 245.051 496.647 244.368 496.647 243.515V237.883C496.647 237.029 496.775 236.347 497.031 235.835C497.373 235.323 497.97 234.896 498.823 234.555L555.399 208.827C555.911 208.656 556.295 208.571 556.551 208.571C557.575 208.571 558.087 209.168 558.087 210.363V220.475C558.087 221.413 557.917 222.096 557.575 222.523C557.319 222.949 556.765 223.333 555.911 223.675L516.615 240.571L555.911 257.467C556.765 257.808 557.319 258.192 557.575 258.619C557.917 259.045 558.087 259.728 558.087 260.667V271.035C558.087 272.229 557.575 272.827 556.551 272.827C556.039 272.827 555.655 272.741 555.399 272.571L498.823 246.843ZM569.814 275.643C568.62 275.643 568.022 275.131 568.022 274.107C568.022 273.595 568.15 273.04 568.406 272.443L601.942 190.779C602.54 189.328 603.564 188.603 605.014 188.603H617.046C618.241 188.603 618.838 189.157 618.838 190.267C618.838 190.779 618.71 191.291 618.454 191.803L584.918 273.595C584.406 274.96 583.34 275.643 581.718 275.643H569.814ZM630.308 272.827C629.284 272.827 628.772 272.229 628.772 271.035V261.435C628.772 260.496 628.9 259.813 629.156 259.387C629.498 258.96 630.095 258.576 630.948 258.235L670.756 240.571L630.948 222.907C630.095 222.565 629.498 222.181 629.156 221.755C628.9 221.328 628.772 220.645 628.772 219.707V210.363C628.772 209.168 629.284 208.571 630.308 208.571L631.332 208.827L688.036 234.555C688.804 234.981 689.359 235.451 689.7 235.963C690.042 236.389 690.212 237.029 690.212 237.883V243.515C690.212 244.368 690.042 245.051 689.7 245.563C689.359 245.989 688.804 246.416 688.036 246.843L631.332 272.571L630.308 272.827Z" fill="white" fill-opacity="0.12"/>
<path d="M505.182 118.2C504.328 117.859 503.731 117.432 503.39 116.92C503.134 116.408 503.006 115.725 503.006 114.872V109.24C503.006 108.387 503.134 107.704 503.39 107.192C503.731 106.68 504.328 106.253 505.182 105.912L561.758 80.184C562.27 80.0133 562.654 79.928 562.91 79.928C563.934 79.928 564.446 80.5253 564.446 81.72V91.832C564.446 92.7707 564.275 93.4533 563.934 93.88C563.678 94.3067 563.123 94.6907 562.27 95.032L522.974 111.928L562.27 128.824C563.123 129.165 563.678 129.549 563.934 129.976C564.275 130.403 564.446 131.085 564.446 132.024V142.392C564.446 143.587 563.934 144.184 562.91 144.184C562.398 144.184 562.014 144.099 561.758 143.928L505.182 118.2ZM576.173 147C574.978 147 574.381 146.488 574.381 145.464C574.381 144.952 574.509 144.397 574.765 143.8L608.301 62.136C608.898 60.6853 609.922 59.96 611.373 59.96H623.405C624.599 59.96 625.197 60.5147 625.197 61.624C625.197 62.136 625.069 62.648 624.813 63.16L591.277 144.952C590.765 146.317 589.698 147 588.077 147H576.173ZM636.667 144.184C635.643 144.184 635.131 143.587 635.131 142.392V132.792C635.131 131.853 635.259 131.171 635.515 130.744C635.856 130.317 636.453 129.933 637.307 129.592L677.115 111.928L637.307 94.264C636.453 93.9227 635.856 93.5387 635.515 93.112C635.259 92.6853 635.131 92.0027 635.131 91.064V81.72C635.131 80.5253 635.643 79.928 636.667 79.928L637.691 80.184L694.395 105.912C695.163 106.339 695.717 106.808 696.059 107.32C696.4 107.747 696.571 108.387 696.571 109.24V114.872C696.571 115.725 696.4 116.408 696.059 116.92C695.717 117.347 695.163 117.773 694.395 118.2L637.691 143.928L636.667 144.184Z" fill="white" fill-opacity="0.12"/>
<path d="M744.652 246.843C743.799 246.501 743.202 246.075 742.86 245.563C742.604 245.051 742.476 244.368 742.476 243.515V237.883C742.476 237.029 742.604 236.347 742.86 235.835C743.202 235.323 743.799 234.896 744.652 234.555L801.228 208.827C801.74 208.656 802.124 208.571 802.38 208.571C803.404 208.571 803.916 209.168 803.916 210.363V220.475C803.916 221.413 803.746 222.096 803.404 222.523C803.148 222.949 802.594 223.333 801.74 223.675L762.444 240.571L801.74 257.467C802.594 257.808 803.148 258.192 803.404 258.619C803.746 259.045 803.916 259.728 803.916 260.667V271.035C803.916 272.229 803.404 272.827 802.38 272.827C801.868 272.827 801.484 272.741 801.228 272.571L744.652 246.843ZM815.643 275.643C814.449 275.643 813.851 275.131 813.851 274.107C813.851 273.595 813.979 273.04 814.235 272.443L847.771 190.779C848.369 189.328 849.393 188.603 850.843 188.603H862.875C864.07 188.603 864.667 189.157 864.667 190.267C864.667 190.779 864.539 191.291 864.283 191.803L830.747 273.595C830.235 274.96 829.169 275.643 827.547 275.643H815.643ZM876.137 272.827C875.113 272.827 874.601 272.229 874.601 271.035V261.435C874.601 260.496 874.729 259.813 874.985 259.387C875.327 258.96 875.924 258.576 876.777 258.235L916.585 240.571L876.777 222.907C875.924 222.565 875.327 222.181 874.985 221.755C874.729 221.328 874.601 220.645 874.601 219.707V210.363C874.601 209.168 875.113 208.571 876.137 208.571L877.161 208.827L933.865 234.555C934.633 234.981 935.188 235.451 935.529 235.963C935.871 236.389 936.041 237.029 936.041 237.883V243.515C936.041 244.368 935.871 245.051 935.529 245.563C935.188 245.989 934.633 246.416 933.865 246.843L877.161 272.571L876.137 272.827Z" fill="white" fill-opacity="0.12"/>
<path d="M751.009 118.2C750.155 117.859 749.558 117.432 749.217 116.92C748.961 116.408 748.833 115.725 748.833 114.872V109.24C748.833 108.387 748.961 107.704 749.217 107.192C749.558 106.68 750.155 106.253 751.009 105.912L807.585 80.184C808.097 80.0133 808.481 79.928 808.737 79.928C809.761 79.928 810.273 80.5253 810.273 81.72V91.832C810.273 92.7707 810.102 93.4533 809.761 93.88C809.505 94.3067 808.95 94.6907 808.097 95.032L768.801 111.928L808.097 128.824C808.95 129.165 809.505 129.549 809.761 129.976C810.102 130.403 810.273 131.085 810.273 132.024V142.392C810.273 143.587 809.761 144.184 808.737 144.184C808.225 144.184 807.841 144.099 807.585 143.928L751.009 118.2ZM822 147C820.805 147 820.208 146.488 820.208 145.464C820.208 144.952 820.336 144.397 820.592 143.8L854.128 62.136C854.725 60.6853 855.749 59.96 857.2 59.96H869.232C870.426 59.96 871.024 60.5147 871.024 61.624C871.024 62.136 870.896 62.648 870.64 63.16L837.104 144.952C836.592 146.317 835.525 147 833.904 147H822ZM882.494 144.184C881.47 144.184 880.958 143.587 880.958 142.392V132.792C880.958 131.853 881.086 131.171 881.342 130.744C881.683 130.317 882.28 129.933 883.134 129.592L922.942 111.928L883.134 94.264C882.28 93.9227 881.683 93.5387 881.342 93.112C881.086 92.6853 880.958 92.0027 880.958 91.064V81.72C880.958 80.5253 881.47 79.928 882.494 79.928L883.518 80.184L940.222 105.912C940.99 106.339 941.544 106.808 941.886 107.32C942.227 107.747 942.398 108.387 942.398 109.24V114.872C942.398 115.725 942.227 116.408 941.886 116.92C941.544 117.347 940.99 117.773 940.222 118.2L883.518 143.928L882.494 144.184Z" fill="white" fill-opacity="0.12"/>
</svg>
