<svg width="437" height="220" viewBox="0 0 437 220" fill="none" xmlns="http://www.w3.org/2000/svg">
<path d="M157.197 77.9434L149.995 82.7041C145.601 76.1937 139.863 71.0667 132.783 67.3232C125.785 63.4984 118.175 61.5859 109.956 61.5859C96.6097 61.5859 85.2165 66.306 75.7764 75.7461C66.3363 85.1862 61.6162 96.5794 61.6162 109.926C61.6162 123.272 66.3363 134.665 75.7764 144.105C85.2165 153.546 96.6097 158.266 109.956 158.266C118.175 158.266 125.785 156.353 132.783 152.528C139.863 148.703 145.601 143.536 149.995 137.025L157.075 142.152C151.867 149.802 145.112 155.865 136.812 160.341C128.511 164.817 119.559 167.055 109.956 167.055C102.225 167.055 94.8193 165.549 87.7393 162.538C80.7406 159.527 74.6777 155.458 69.5508 150.331C64.4238 145.204 60.3548 139.141 57.3438 132.143C54.3327 125.062 52.8271 117.657 52.8271 109.926C52.8271 102.195 54.3327 94.8298 57.3438 87.8311C60.3548 80.751 64.4238 74.6475 69.5508 69.5205C74.6777 64.3936 80.7406 60.3245 87.7393 57.3135C94.8193 54.3024 102.225 52.7969 109.956 52.7969C119.64 52.7969 128.633 55.0755 136.934 59.6328C145.234 64.1087 151.989 70.2122 157.197 77.9434ZM171.724 67.9336L164.399 72.6943C158.377 63.9053 150.565 56.9473 140.962 51.8203C131.44 46.612 121.105 44.0078 109.956 44.0078C97.9932 44.0078 86.9661 46.9782 76.875 52.9189C66.7839 58.7783 58.7679 66.7536 52.8271 76.8447C46.9678 86.9359 44.0381 97.9629 44.0381 109.926C44.0381 121.889 46.9678 132.916 52.8271 143.007C58.7679 153.098 66.7839 161.114 76.875 167.055C86.9661 172.914 97.9932 175.844 109.956 175.844C121.105 175.844 131.481 173.24 141.084 168.031C150.687 162.823 158.499 155.784 164.521 146.913L171.724 151.918C164.888 162.009 156.017 169.984 145.112 175.844C134.289 181.703 122.57 184.633 109.956 184.633C96.4469 184.633 83.9551 181.296 72.4805 174.623C61.0059 167.95 51.932 158.876 45.2588 147.401C38.5856 135.927 35.249 123.435 35.249 109.926C35.249 96.4167 38.5856 83.9248 45.2588 72.4502C51.932 60.9756 61.0059 51.9017 72.4805 45.2285C83.9551 38.5553 96.4469 35.2188 109.956 35.2188C122.57 35.2188 134.289 38.1484 145.112 44.0078C156.017 49.8672 164.888 57.8424 171.724 67.9336ZM186.372 58.168L179.048 62.9287C171.398 51.6982 161.47 42.8278 149.263 36.3174C137.137 29.7256 124.035 26.4297 109.956 26.4297C98.6442 26.4297 87.8206 28.627 77.4854 33.0215C67.1501 37.416 58.2389 43.3568 50.752 50.8438C43.3464 58.2493 37.4463 67.1198 33.0518 77.4551C28.6572 87.7904 26.46 98.6139 26.46 109.926C26.46 121.238 28.6572 132.061 33.0518 142.396C37.4463 152.732 43.3464 161.643 50.752 169.13C58.2389 176.535 67.1501 182.436 77.4854 186.83C87.8206 191.225 98.6442 193.422 109.956 193.422C124.116 193.422 137.259 190.126 149.385 183.534C161.51 176.942 171.398 168.031 179.048 156.801L186.128 162.05C177.664 174.42 166.719 184.226 153.291 191.469C139.945 198.63 125.5 202.211 109.956 202.211C93.2731 202.211 77.8516 198.101 63.6914 189.882C49.5312 181.581 38.3008 170.351 30 156.19C21.7806 142.03 17.6709 126.609 17.6709 109.926C17.6709 93.2428 21.7806 77.8213 30 63.6611C38.3008 49.501 49.5312 38.3112 63.6914 30.0918C77.8516 21.791 93.2731 17.6406 109.956 17.6406C125.581 17.6406 140.107 21.3027 153.535 28.627C166.963 35.8698 177.909 45.7168 186.372 58.168ZM200.776 48.1582L193.452 52.9189C184.175 39.3285 172.171 28.5863 157.441 20.6924C142.793 12.7985 126.965 8.85156 109.956 8.85156C96.2842 8.85156 83.182 11.5371 70.6494 16.9082C58.1982 22.1979 47.4561 29.3594 38.4229 38.3926C29.3896 47.4258 22.1875 58.2087 16.8164 70.7412C11.5267 83.1924 8.88184 96.2539 8.88184 109.926C8.88184 123.598 11.5267 136.7 16.8164 149.232C22.1875 161.684 29.3896 172.426 38.4229 181.459C47.4561 190.492 58.1982 197.694 70.6494 203.065C83.182 208.355 96.2842 211 109.956 211C126.965 211 142.834 207.012 157.563 199.037C172.293 191.062 184.297 180.279 193.574 166.688L200.654 172.06C190.563 186.708 177.542 198.345 161.592 206.972C145.641 215.517 128.429 219.789 109.956 219.789C95.0635 219.789 80.8219 216.859 67.2314 211C53.7223 205.222 42.0443 197.45 32.1973 187.685C22.4316 177.838 14.6191 166.16 8.75977 152.65C2.98177 139.06 0.0927734 124.818 0.0927734 109.926C0.0927734 95.0332 2.98177 80.8324 8.75977 67.3232C14.6191 53.7327 22.4316 42.0547 32.1973 32.2891C42.0443 22.4421 53.7223 14.6296 67.2314 8.85156C80.8219 2.99219 95.0635 0.0625 109.956 0.0625C128.511 0.0625 145.763 4.37565 161.714 13.002C177.664 21.6283 190.685 33.347 200.776 48.1582ZM210.908 8.85156H220.43L295.625 199.159L370.82 8.85156H380.22L300.386 211H290.864L210.908 8.85156ZM301.729 167.055L296.724 178.285L229.829 8.85156H239.229L301.729 167.055ZM311.128 143.007L306.489 155.092L248.75 8.85156H258.271L311.128 143.007ZM320.405 118.593L315.767 130.922L267.671 8.85156H277.07L320.405 118.593ZM427.461 8.85156H436.982L357.026 211H347.627L427.461 8.85156ZM408.662 8.85156H418.062L338.105 211H328.706L408.662 8.85156ZM389.619 8.85156H399.141L319.185 211H309.785L389.619 8.85156Z" fill="white"/>
</svg>
