<svg width="363" height="257" viewBox="0 0 363 257" fill="none" xmlns="http://www.w3.org/2000/svg">
<path d="M328.846 59.7722C329.773 59.8139 330.544 60.0795 331.158 60.5639C331.783 61.0378 331.981 61.5587 331.762 62.1264C331.512 62.668 331.184 63.0326 330.783 63.2097C330.393 63.392 329.95 63.4805 329.45 63.4805C328.851 63.5795 328.221 63.6472 327.554 63.6889C318.538 64.8868 306.742 67.3295 292.158 71.0222C277.575 74.7201 265.856 77.9285 257.012 80.6472C250.179 82.6785 243.356 84.7878 236.554 86.9805C236.398 87.0118 236.205 87.1003 235.971 87.2514C233.122 88.1576 230.637 89.6628 228.512 91.7722C220.622 99.2618 212.346 106.22 203.679 112.647C195.012 119.08 186.101 125.205 176.95 131.022C162.143 140.678 146.835 149.475 131.033 157.418C127.783 158.876 125.637 161.356 124.596 164.856C119.596 180.798 114.221 196.47 108.471 211.876C103.387 225.585 98.6061 239.402 94.1374 253.335C94.1478 253.387 94.1217 253.465 94.054 253.564C93.8978 254.283 93.6582 254.882 93.3249 255.356C92.7103 256.048 91.9499 256.387 91.0332 256.376C90.5749 256.611 90.0853 256.694 89.5749 256.626C88.4915 256.361 87.8561 255.689 87.679 254.606C87.4967 252.772 87.804 250.981 88.5957 249.231C88.6478 249.147 88.6686 249.043 88.6582 248.918C93.3665 235.918 97.9603 222.939 102.45 209.981C106.95 197.033 111.2 183.949 115.2 170.731C115.533 169.621 115.856 168.501 116.179 167.376C116.273 166.824 116.393 166.241 116.533 165.626C115.934 165.559 115.387 165.512 114.887 165.481C113.971 165.83 113.08 166.251 112.221 166.751C111.913 166.876 111.617 167.038 111.325 167.231C100.252 172.428 88.9707 177.158 77.4707 181.439C69.4967 184.241 61.4186 186.616 53.2207 188.564C52.804 188.715 52.429 188.819 52.0957 188.876C51.278 189.069 50.4603 189.236 49.6374 189.376C46.429 189.902 43.2363 189.923 40.054 189.439C37.6113 188.981 36.0228 187.887 35.2832 186.168C34.5488 184.444 34.7832 182.418 35.9915 180.085C37.6738 177.335 39.7988 174.97 42.3665 172.981C48.1322 167.939 54.3249 163.564 60.9499 159.856C78.6165 149.663 96.679 140.303 115.137 131.772C116.137 131.262 117.205 130.783 118.346 130.335C120.747 129.434 122.95 128.33 124.95 127.022C126.95 125.72 128.294 123.788 128.992 121.231C131.533 111.189 133.919 101.163 136.158 91.1472C138.408 81.1368 140.367 70.9962 142.033 60.7305C142.033 60.6628 142.054 60.543 142.096 60.3764C142.288 58.5326 142.679 56.7618 143.262 55.0639C143.512 54.4805 143.893 54.043 144.408 53.7514C144.919 53.4597 145.46 53.3243 146.033 53.3347C146.45 53.1576 146.908 53.0795 147.408 53.1055C148.7 53.2201 149.554 53.9337 149.971 55.2514C150.387 57.8243 150.314 60.392 149.762 62.9597C149.773 63.043 149.762 63.1576 149.721 63.293C147.663 76.4076 145.085 89.3868 141.992 102.231C141.21 105.772 140.377 109.272 139.492 112.731C139.169 113.981 138.867 115.272 138.575 116.606C138.169 118.178 138.075 119.231 138.283 119.772C138.492 120.303 138.913 120.496 139.554 120.356C140.205 120.205 140.981 119.876 141.887 119.376C142.163 119.251 142.46 119.126 142.783 119.001C146.283 117.46 149.788 115.939 153.304 114.439C159.679 111.705 166.08 108.96 172.512 106.21C188.314 99.668 204.33 93.6628 220.554 88.1889C223.439 87.2201 225.851 85.642 227.783 83.4597C231.96 79.1264 235.976 74.1628 239.825 68.5639C243.669 62.9545 246.658 57.1055 248.783 51.0222C250.908 44.9285 251.335 38.9545 250.075 33.1055C248.825 27.2618 245.163 21.8451 239.096 16.8555C235.205 13.9285 230.96 11.642 226.367 10.0014C216.684 6.65763 205.429 4.87117 192.596 4.64721C179.762 4.42846 166.2 5.41283 151.908 7.60554C137.617 9.80346 123.439 12.8555 109.387 16.7722C95.3457 20.6785 82.304 25.043 70.2624 29.8764C58.2363 34.6993 48.0488 39.6264 39.6999 44.668C32.4655 48.9753 25.7311 53.9389 19.4915 59.5639C16.9395 61.7618 14.5853 64.0951 12.429 66.5639C10.278 69.0378 8.43946 71.7722 6.9082 74.7722C6.35612 76.0795 5.4655 76.866 4.24154 77.1264C3.9655 77.1837 3.6582 77.2305 3.32487 77.2722C3.24154 77.2878 3.16862 77.3035 3.0957 77.3139C2.61133 77.3972 2.13216 77.4128 1.6582 77.3555C1.18945 77.3035 0.783204 77.0847 0.449871 76.7097C0.241537 76.3764 0.111329 76.0378 0.0540375 75.6889C0.00195348 75.3295 -0.0136705 75.0118 0.0123708 74.7305C0.402996 73.1212 1.04883 71.6576 1.94987 70.3347C2.85612 69.017 3.7832 67.7097 4.74154 66.418C7.3405 63.366 10.1061 60.5378 13.0332 57.9389C15.9655 55.3295 19.002 52.8451 22.1374 50.4805C30.1686 44.3712 40.7207 38.3451 53.804 32.3972C66.8717 26.4545 81.4082 21.0118 97.4082 16.0639C113.419 11.1212 129.726 7.19929 146.325 4.29304C162.934 1.37638 178.684 -0.0507073 193.575 0.00137535C208.476 0.0586674 221.497 2.0795 232.637 6.06388C237.596 7.8295 242.205 10.3503 246.471 13.6264C252.481 18.543 256.294 23.7462 257.908 29.2305C259.518 34.7045 259.627 40.2514 258.242 45.8764C256.851 51.5014 254.564 57.0222 251.387 62.4389C248.221 67.8451 244.908 72.9493 241.45 77.7514C241.033 78.267 240.622 78.8764 240.221 79.5847C239.83 80.2826 239.705 80.8295 239.846 81.2305C239.997 81.6368 240.643 81.6628 241.783 81.3139C255.325 76.8035 268.929 72.8503 282.596 69.4597C296.273 66.0587 310.096 63.0118 324.054 60.3139C324.471 60.2462 324.846 60.1837 325.179 60.1264L325.283 60.1055C326.45 59.9128 327.637 59.8035 328.846 59.7722ZM119.679 155.647C119.846 154.856 120.231 153.689 120.846 152.147C121.648 149.746 122.471 147.095 123.304 144.189C124.148 141.288 124.7 138.772 124.95 136.647C125.21 134.512 124.742 133.439 123.533 133.439C122.835 133.663 122.169 133.949 121.533 134.293C121.393 134.324 121.189 134.392 120.929 134.501C118.413 135.767 115.887 136.991 113.346 138.168C107.273 141.043 101.2 144.043 95.1165 147.168C94.8249 147.283 94.5332 147.439 94.2415 147.647C83.3353 153.022 72.6895 158.897 62.304 165.272C57.054 168.496 52.179 172.168 47.679 176.293C45.9447 177.678 44.5957 179.397 43.6374 181.439C43.2624 182.272 43.2311 182.981 43.5332 183.564C43.8405 184.147 44.4395 184.533 45.3249 184.731C47.1582 185.022 48.9811 185.022 50.7832 184.731C52.3665 184.465 53.9395 184.132 55.4915 183.731C55.5749 183.715 55.6165 183.71 55.6165 183.71C63.6999 181.543 71.5749 178.887 79.2415 175.751C91.4082 170.908 103.346 165.621 115.054 159.897C115.231 159.746 115.367 159.668 115.45 159.668C116.377 159.267 117.221 158.772 117.971 158.189C118.731 157.606 119.304 156.762 119.679 155.647ZM129.887 151.731C137.023 148.606 146.596 143.371 158.596 136.022C170.606 128.663 182.064 121.095 192.971 113.314C203.872 105.522 211.163 99.3764 214.846 94.8764C214.288 94.9597 213.804 95.0378 213.387 95.1055C213.189 95.1368 213.059 95.1576 212.992 95.168C187.768 104.574 162.971 114.908 138.596 126.168C136.439 127.184 135.122 128.788 134.637 130.981C133.637 134.553 132.643 138.08 131.658 141.564C130.877 144.178 130.106 146.824 129.346 149.501C129.247 149.866 129.21 150.262 129.242 150.689C129.268 151.106 129.481 151.455 129.887 151.731Z" fill="black"/>
<mask id="mask0_19_5" style="mask-type:luminance" maskUnits="userSpaceOnUse" x="350" y="53" width="13" height="13">
<path d="M350.061 53.3784H362.493V65.8106H350.061V53.3784Z" fill="white"/>
</mask>
<g mask="url(#mask0_19_5)">
<mask id="mask1_19_5" style="mask-type:luminance" maskUnits="userSpaceOnUse" x="350" y="53" width="13" height="13">
<path d="M356.275 53.3784C352.842 53.3784 350.061 56.1596 350.061 59.5919C350.061 63.0294 352.842 65.8106 356.275 65.8106C359.712 65.8106 362.493 63.0294 362.493 59.5919C362.493 56.1596 359.712 53.3784 356.275 53.3784Z" fill="white"/>
</mask>
<g mask="url(#mask1_19_5)">
<path d="M350.061 53.3784H362.493V65.8106H350.061V53.3784Z" fill="black"/>
</g>
</g>
</svg>
