<svg width="1350" height="582" viewBox="0 0 1350 582" fill="none" xmlns="http://www.w3.org/2000/svg">
<path d="M745.179 135.442C747.288 135.525 749.044 136.119 750.45 137.212C751.867 138.296 752.325 139.494 751.825 140.796C751.242 142.035 750.497 142.858 749.596 143.275C748.705 143.681 747.689 143.879 746.554 143.879C745.179 144.103 743.752 144.249 742.283 144.317C721.851 147.015 695.106 152.561 662.054 160.962C628.997 169.353 602.439 176.624 582.387 182.775C566.913 187.39 551.471 192.181 536.054 197.15C535.721 197.207 535.273 197.4 534.721 197.733C528.288 199.749 522.663 203.171 517.846 208.004C499.981 224.936 481.231 240.692 461.596 255.275C441.955 269.858 421.762 283.749 401.012 296.942C367.455 318.791 332.768 338.723 296.95 356.733C289.585 360.025 284.705 365.639 282.304 373.567C270.997 409.692 258.83 445.212 245.804 480.129C234.304 511.181 223.481 542.488 213.346 574.046C213.372 574.197 213.314 574.379 213.179 574.587C212.814 576.223 212.247 577.593 211.471 578.692C210.137 580.218 208.419 580.973 206.325 580.962C205.268 581.488 204.158 581.671 202.992 581.504C200.533 580.947 199.101 579.426 198.7 576.942C198.283 572.801 198.976 568.744 200.783 564.775C200.919 564.567 200.971 564.337 200.929 564.087C211.58 534.629 221.997 505.218 232.179 475.858C242.372 446.509 252.002 416.858 261.075 386.9C261.809 384.4 262.538 381.869 263.262 379.296C263.481 378.035 263.752 376.712 264.075 375.337C262.726 375.212 261.476 375.108 260.325 375.025C258.252 375.817 256.262 376.764 254.346 377.858C253.606 378.15 252.919 378.52 252.283 378.962C227.184 390.754 201.617 401.483 175.575 411.15C157.492 417.509 139.169 422.905 120.596 427.337C119.679 427.655 118.84 427.879 118.075 428.004C116.215 428.488 114.346 428.884 112.471 429.192C105.21 430.369 97.9811 430.4 90.7832 429.275C85.2572 428.233 81.653 425.759 79.9707 421.858C78.2936 417.968 78.8196 413.4 81.554 408.15C85.3613 401.926 90.1894 396.541 96.0332 391.983C109.09 380.567 123.132 370.66 138.158 362.254C178.158 339.171 219.085 317.973 260.95 298.65C263.226 297.483 265.637 296.39 268.179 295.358C273.637 293.332 278.622 290.832 283.137 287.858C287.648 284.89 290.705 280.515 292.304 274.733C298.08 251.957 303.512 229.223 308.596 206.525C313.679 183.817 318.106 160.848 321.887 137.608C321.856 137.457 321.898 137.192 322.012 136.817C322.455 132.624 323.335 128.624 324.658 124.817C325.226 123.483 326.096 122.483 327.262 121.817C328.429 121.15 329.663 120.848 330.971 120.9C331.887 120.483 332.913 120.317 334.054 120.4C336.997 120.608 338.929 122.223 339.846 125.233C340.788 131.041 340.637 136.853 339.387 142.671C339.413 142.837 339.377 143.108 339.283 143.483C334.617 173.166 328.768 202.567 321.742 231.692C319.976 239.692 318.117 247.624 316.158 255.483C315.393 258.317 314.684 261.233 314.033 264.233C313.117 267.791 312.887 270.171 313.346 271.379C313.804 272.577 314.768 273.015 316.242 272.692C317.726 272.358 319.476 271.64 321.492 270.525C322.143 270.233 322.846 269.942 323.596 269.65C331.523 266.181 339.471 262.744 347.429 259.337C361.856 253.145 376.372 246.931 390.971 240.692C426.773 225.848 463.059 212.244 499.825 199.879C506.377 197.671 511.851 194.103 516.242 189.171C525.669 179.311 534.747 168.041 543.471 155.358C552.205 142.666 558.981 129.416 563.804 115.608C568.622 101.806 569.601 88.2749 566.742 75.0249C563.877 61.7749 555.575 49.5041 541.825 38.2124C533.033 31.5874 523.419 26.3999 512.992 22.6499C491.059 15.0822 465.538 11.0562 436.429 10.5666C407.314 10.0666 376.575 12.2958 344.2 17.2541C311.835 22.202 279.731 29.103 247.887 37.9624C216.038 46.8114 186.492 56.7124 159.242 67.6708C131.992 78.6291 108.903 89.8166 89.9707 101.233C73.5957 110.999 58.3353 122.244 44.179 134.962C38.403 139.952 33.0749 145.249 28.1999 150.858C23.3249 156.457 19.1686 162.65 15.7207 169.442C14.429 172.374 12.3874 174.16 9.59569 174.796C9.00194 174.895 8.31965 175.004 7.55402 175.129C7.37694 175.16 7.19986 175.186 7.03319 175.212C5.92381 175.395 4.83527 175.416 3.76236 175.275C2.67902 175.14 1.76236 174.645 1.01236 173.796C0.554022 173.087 0.262356 172.332 0.137355 171.525C0.00193815 170.707 -0.0345192 169.983 0.0331888 169.358C0.939439 165.707 2.4186 162.379 4.47069 159.379C6.51236 156.369 8.61652 153.41 10.7832 150.504C16.6738 143.587 22.929 137.186 29.554 131.296C36.179 125.41 43.0488 119.785 50.1582 114.421C68.3405 100.587 92.2572 86.9208 121.908 73.4208C151.559 59.9208 184.523 47.577 220.804 36.3791C257.08 25.1708 294.018 16.2749 331.617 9.69159C369.21 3.09784 404.898 -0.131328 438.679 0.00408762C472.455 0.129088 501.955 4.72284 527.179 13.7749C538.439 17.7333 548.887 23.452 558.512 30.9208C572.163 42.0353 580.809 53.8062 584.45 66.2333C588.085 78.6656 588.335 91.2541 585.2 104.004C582.059 116.744 576.898 129.244 569.721 141.504C562.538 153.754 555.012 165.337 547.137 176.254C546.179 177.379 545.262 178.744 544.387 180.337C543.512 181.921 543.231 183.171 543.554 184.087C543.872 184.994 545.33 185.056 547.929 184.275C578.606 174.056 609.434 165.087 640.408 157.379C671.393 149.66 702.7 142.754 734.325 136.671C735.268 136.52 736.122 136.379 736.887 136.254L737.137 136.212C739.773 135.785 742.455 135.525 745.179 135.442ZM271.179 352.754C271.58 350.936 272.471 348.291 273.846 344.817C275.663 339.348 277.533 333.317 279.45 326.733C281.367 320.15 282.606 314.452 283.179 309.629C283.762 304.796 282.7 302.39 279.992 302.4C278.393 302.916 276.872 303.556 275.429 304.317C275.08 304.374 274.622 304.541 274.054 304.817C268.372 307.666 262.637 310.431 256.846 313.108C243.106 319.65 229.346 326.452 215.554 333.504C214.898 333.796 214.221 334.171 213.512 334.629C188.83 346.785 164.726 360.077 141.2 374.504C129.325 381.796 118.278 390.129 108.054 399.504C104.096 402.697 101.044 406.572 98.8874 411.129C98.054 413.004 97.9915 414.608 98.6999 415.942C99.3978 417.285 100.742 418.192 102.742 418.65C106.867 419.301 110.986 419.296 115.096 418.629C118.679 418.046 122.242 417.285 125.783 416.358C125.939 416.327 126.012 416.317 126.012 416.317C144.346 411.41 162.184 405.4 179.533 398.275C207.127 387.306 234.21 375.327 260.783 362.337C261.158 362.004 261.429 361.827 261.596 361.796C263.731 360.921 265.658 359.817 267.367 358.483C269.075 357.15 270.346 355.244 271.179 352.754ZM294.325 343.858C310.533 336.749 332.231 324.874 359.429 308.233C386.637 291.582 412.596 274.436 437.304 256.796C462.012 239.145 478.533 225.212 486.867 215.004C485.585 215.212 484.476 215.395 483.533 215.546C483.117 215.619 482.825 215.666 482.658 215.692C425.518 236.973 369.335 260.379 314.117 285.921C309.242 288.212 306.231 291.853 305.096 296.837C302.83 304.936 300.58 312.936 298.346 320.837C296.58 326.744 294.83 332.728 293.096 338.796C292.887 339.619 292.814 340.504 292.887 341.462C292.955 342.41 293.434 343.207 294.325 343.858Z" fill="white"/>
<path d="M590.039 259.347C592.231 260.17 592.83 262.941 591.83 267.66C589.882 271.316 587.731 274.78 585.372 278.056C583.007 281.321 580.341 284.337 577.372 287.097C577.106 287.139 576.986 287.254 577.018 287.431C575.044 289.337 572.919 291.035 570.643 292.535C551.403 303.201 540.273 300.576 537.247 284.66C530.122 293.191 525.289 298.493 522.747 300.576C516.632 305.691 509.622 308.67 501.705 309.514C495.83 310.113 491.591 308.983 488.976 306.118C486.367 303.259 485.861 298.899 487.455 293.035C489.804 283.785 493.903 275.222 499.747 267.347C506.637 258.514 514.669 251.03 523.851 244.889C528.71 241.379 534.091 239.446 539.997 239.097C545.872 238.504 549.914 241.222 552.122 247.264C552.924 249.056 552.716 250.8 551.497 252.493C549.898 254.509 547.789 255.243 545.164 254.701C544.997 254.733 544.752 254.733 544.434 254.701C544.111 254.66 543.856 254.571 543.664 254.431C540.632 251.42 537.903 250.399 535.476 251.368C533.044 252.326 530.559 253.884 528.018 256.035C516.101 265.868 508.059 278.191 503.893 292.993C503.643 293.634 503.533 294.326 503.559 295.076C503.591 295.816 503.903 296.358 504.497 296.701C506.111 296.967 507.794 296.587 509.559 295.556C511.32 294.53 513.023 293.155 514.664 291.431C516.315 289.712 517.71 288.274 518.851 287.118C518.976 286.842 519.039 286.701 519.039 286.701C524.424 280.483 529.669 274.149 534.768 267.701C536.976 264.451 540.002 262.337 543.851 261.347C549.502 260.431 552.268 262.576 552.143 267.785C551.934 269.743 551.684 271.712 551.393 273.681C550.486 282.155 551.174 286.931 553.455 288.014C555.731 289.097 558.872 288.592 562.872 286.493C566.872 284.399 570.664 281.024 574.247 276.368C577.841 271.717 580.82 267.509 583.184 263.743C585.559 259.983 587.841 258.514 590.039 259.347Z" fill="white"/>
<path d="M674.17 244.151C674.587 244.083 675.087 244.11 675.67 244.235C676.264 244.36 676.764 244.563 677.17 244.839C678.555 245.755 678.904 247.063 678.212 248.755C677.222 250.245 676.253 251.542 675.295 252.651C669.696 259.792 663.217 266.063 655.857 271.464C644.259 279.912 630.863 285.458 615.67 288.11C610.055 289.193 604.097 289.203 597.795 288.13C586.16 285.63 580.43 278.453 580.607 266.589C581.373 255.505 585.962 245.667 594.378 237.068C602.805 228.458 612.566 223.729 623.649 222.88C625.759 222.896 627.884 223.037 630.024 223.297C632.024 223.755 633.613 224.662 634.795 226.005C635.988 227.354 636.274 228.568 635.649 229.651C633.967 232.193 631.712 233.125 628.878 232.443C624.67 231.36 620.982 231.474 617.816 232.776C614.649 234.083 611.634 236.417 608.774 239.776C605.925 242.776 603.003 246.938 600.003 252.255C597.003 257.563 595.378 262.693 595.128 267.651C594.878 272.599 597.649 276.13 603.441 278.255C609.842 279.938 616.05 279.589 622.066 277.214C637.092 271.521 650.576 263.287 662.524 252.505C663.618 251.714 664.576 250.854 665.399 249.922C666.66 248.578 667.982 247.422 669.357 246.464C670.743 245.495 672.347 244.724 674.17 244.151Z" fill="white"/>
<path d="M693.543 278.351L693.147 278.413C680.741 280.262 672.147 278.841 667.356 274.143C662.554 269.434 661.559 262.288 664.377 252.705C666.892 245.372 670.47 238.742 675.106 232.809C676.705 230.799 678.397 229.117 680.189 227.768C681.991 226.424 684.137 225.549 686.627 225.143C688.043 224.674 689.752 224.663 691.752 225.122C692.377 225.195 693.007 225.309 693.647 225.476C695.048 224.976 696.382 224.268 697.647 223.351C697.949 223.059 698.382 222.778 698.939 222.497C701.59 220.929 704.512 219.976 707.71 219.643C708.97 219.434 710.293 219.221 711.668 218.997C716.819 218.945 720.96 220.434 724.085 223.476C727.21 226.518 728.793 230.591 728.835 235.684C728.887 238.726 728.403 241.684 727.377 244.559C720.418 263.768 709.397 274.992 694.314 278.226L693.543 278.351ZM706.356 229.184C699.564 230.018 693.877 232.934 689.293 237.934C684.72 242.934 681.59 248.341 679.897 254.143C678.199 259.934 678.21 264.471 679.918 267.747C681.627 271.028 685.345 271.408 691.085 268.893C697.502 265.742 702.835 260.929 707.085 254.455C711.345 247.971 713.637 242.096 713.96 236.83C714.293 231.554 711.757 229.007 706.356 229.184Z" fill="white"/>
<path d="M816.196 226.09C806.931 241.439 797.327 253.21 787.384 261.402C777.452 269.585 766.051 273.605 753.176 273.465C740.316 273.329 733.811 265.772 733.655 250.798C734.004 243.204 734.941 235.689 736.467 228.257C740.384 210.871 744.405 193.548 748.53 176.298C749.806 170.131 751.207 163.897 752.738 157.59C753.113 156.215 753.457 154.85 753.78 153.486C754.363 151.194 754.946 148.861 755.53 146.486C756.28 142.501 754.467 140.777 750.092 141.319C747.603 141.725 745.165 142.121 742.759 142.506C741.649 142.689 740.42 142.892 739.071 143.111C737.811 143.486 736.509 143.876 735.176 144.277C732.967 144.809 730.78 145.251 728.613 145.611C726.436 145.96 724.316 145.73 722.259 144.923C721.717 144.84 721.259 144.59 720.884 144.173C720.509 143.746 720.274 143.23 720.176 142.631C720.29 142.256 720.498 141.809 720.801 141.277C721.108 140.751 721.551 140.35 722.134 140.069C723.884 139.001 725.754 138.126 727.738 137.444C733.004 136.335 738.228 135.267 743.405 134.236C745.446 133.902 747.243 133.611 748.801 133.361C752.202 132.809 754.717 132.272 756.342 131.756C757.967 131.23 759.165 130.111 759.946 128.402C760.722 126.694 761.535 124.152 762.384 120.777C762.868 118.934 763.498 116.897 764.28 114.673C766.139 108.23 767.978 101.668 769.801 94.9857C770.618 91.9596 771.498 89.0065 772.446 86.1315C773.097 83.2982 774.509 80.9752 776.676 79.1523C778.811 77.6523 780.832 77.4127 782.738 78.4232C783.321 78.6627 783.821 79.1471 784.238 79.8815C784.655 80.6055 784.91 81.2669 785.009 81.8607C785.551 85.194 785.238 88.6211 784.071 92.1315C783.821 92.8711 783.561 93.7461 783.301 94.7565C782.686 98.0065 781.993 101.329 781.217 104.715C779.676 110.923 778.285 117.236 777.051 123.652C776.644 124.861 776.79 125.85 777.488 126.611C778.181 127.376 779.082 127.668 780.196 127.486C786.28 126.684 792.228 125.809 798.051 124.861C801.035 124.376 804.019 123.892 807.009 123.402C816.436 122.059 820.415 122.767 818.946 125.527C817.889 127.194 816.634 128.267 815.176 128.736C813.717 129.194 812.196 129.418 810.613 129.402C809.665 129.559 808.728 129.71 807.801 129.861C798.327 132.017 788.905 133.934 779.53 135.611C775.165 136.319 772.582 138.756 771.78 142.923C770.847 146.939 769.957 150.939 769.113 154.923C767.79 160.23 766.571 165.381 765.446 170.381C764.29 175.131 763.144 179.934 762.009 184.777C758.993 197.017 756.165 209.267 753.53 221.527C751.905 229.501 750.926 237.548 750.592 245.673C749.311 260.522 755.707 265.09 769.78 259.382C783.582 253.632 796.936 240.861 809.842 221.069C815.978 215.6 818.097 217.272 816.196 226.09Z" fill="white"/>
<path d="M980.87 212.364C976.714 218.02 971.625 223.114 965.599 227.656C959.583 232.187 954.443 235.343 950.182 237.135C945.917 238.927 941.443 240.291 936.766 241.218C929.307 242.776 922.224 242.88 915.516 241.531C904.505 239.02 899.615 231.609 900.849 219.302C902.198 208.651 906.984 199.718 915.203 192.51C923.411 185.302 932.396 180.989 942.161 179.573C942.161 179.573 942.245 179.562 942.411 179.531C944.854 178.963 947.234 178.755 949.557 178.906C953.526 179.656 956.271 181.489 957.786 184.406C959.312 187.312 959.193 190.838 957.432 194.989C953.292 204.156 946.599 209.979 937.349 212.448C931.224 214.062 925.151 214.739 919.141 214.489C918.016 214.505 917.083 214.968 916.349 215.885C915.615 216.791 915.255 217.802 915.266 218.927C914.755 226.567 917.776 230.901 924.349 231.927C932.458 233.317 940.443 232.02 948.307 228.031C957.391 223.479 965.568 216.359 972.849 206.677C980.125 197 984.474 192.333 985.891 192.677C987.307 193.01 987.974 194.547 987.891 197.281C987.375 201.672 985.036 206.698 980.87 212.364ZM922.932 200.593C922.516 201.26 922.255 201.979 922.161 202.739C922.062 203.505 922.458 204.125 923.349 204.593C926.599 205.817 929.937 205.916 933.37 204.885C936.797 203.843 939.557 202.041 941.641 199.468C943.724 196.885 944.328 194.041 943.453 190.927C943.036 189.859 942.333 189.255 941.349 189.114C940.359 188.963 939.411 189.047 938.495 189.364C932.354 191.505 927.167 195.25 922.932 200.593Z" fill="white"/>
<path d="M1054.66 140.146C1054.19 142.146 1053.54 144.094 1052.7 145.979C1042.44 170.786 1030.04 194.323 1015.5 216.583C1013.56 219.792 1011.37 222.739 1008.91 225.417C1006.58 227.724 1003.98 229.51 1001.1 230.771C992.876 233.594 987.423 231.015 984.725 223.042C983.548 217.974 982.72 212.89 982.246 207.792C981.871 205.489 981.506 203.224 981.142 201C981.142 201 981.267 200.979 981.517 200.937C981.282 199.396 981.048 197.906 980.809 196.458C980.199 192.698 979.579 188.932 978.954 185.167C978.637 183.125 978.387 181.021 978.204 178.854C978.387 173.995 980.345 171.177 984.079 170.396C988.204 169.896 990.939 172.437 992.288 178.021C992.538 179.552 992.631 180.974 992.579 182.292C992.631 183.698 992.751 184.953 992.934 186.062C993.934 194.411 995.027 202.823 996.225 211.292C996.527 213.182 997.522 214.167 999.204 214.25C999.798 214.156 1000.31 213.937 1000.73 213.604C1001.15 213.26 1001.51 212.849 1001.79 212.375C1005.8 205.75 1009.68 199.156 1013.43 192.583C1014.93 189.974 1016.45 187.406 1018 184.875C1019.62 181.906 1021.27 179.052 1022.93 176.312C1029.39 164.828 1035.9 153.432 1042.48 142.125C1043.19 140.682 1044.1 139.39 1045.18 138.25C1046.28 137.114 1047.77 136.39 1049.64 136.083C1051.21 136.015 1052.63 136.354 1053.91 137.104C1054.29 137.396 1054.52 137.844 1054.62 138.437C1054.71 139.021 1054.73 139.594 1054.66 140.146Z" fill="white"/>
<path d="M1140.96 169.864C1143.16 170.687 1143.76 173.458 1142.76 178.176C1140.81 181.833 1138.66 185.296 1136.3 188.572C1133.93 191.838 1131.27 194.853 1128.3 197.614C1128.03 197.656 1127.91 197.77 1127.94 197.947C1125.97 199.853 1123.84 201.551 1121.57 203.051C1102.33 213.718 1091.2 211.093 1088.17 195.176C1081.05 203.708 1076.21 209.01 1073.67 211.093C1067.56 216.208 1060.55 219.187 1052.63 220.031C1046.76 220.63 1042.52 219.499 1039.9 216.635C1037.29 213.775 1036.79 209.416 1038.38 203.551C1040.73 194.301 1044.83 185.739 1050.67 177.864C1057.56 169.031 1065.59 161.546 1074.78 155.406C1079.64 151.895 1085.02 149.963 1090.92 149.614C1096.8 149.02 1100.84 151.739 1103.05 157.781C1103.85 159.572 1103.64 161.317 1102.42 163.01C1100.82 165.025 1098.71 165.76 1096.09 165.218C1095.92 165.249 1095.68 165.249 1095.36 165.218C1095.04 165.176 1094.78 165.088 1094.59 164.947C1091.56 161.937 1088.83 160.916 1086.4 161.885C1083.97 162.843 1081.49 164.4 1078.94 166.551C1067.03 176.385 1058.99 188.708 1054.82 203.51C1054.57 204.15 1054.46 204.843 1054.49 205.593C1054.52 206.333 1054.83 206.874 1055.42 207.218C1057.04 207.484 1058.72 207.103 1060.49 206.072C1062.25 205.046 1063.95 203.671 1065.59 201.947C1067.24 200.228 1068.64 198.791 1069.78 197.635C1069.9 197.359 1069.96 197.218 1069.96 197.218C1075.35 190.999 1080.59 184.666 1085.69 178.218C1087.9 174.968 1090.93 172.853 1094.78 171.864C1100.43 170.947 1103.19 173.093 1103.07 178.301C1102.86 180.26 1102.61 182.228 1102.32 184.197C1101.41 192.671 1102.1 197.447 1104.38 198.531C1106.66 199.614 1109.8 199.109 1113.8 197.01C1117.8 194.916 1121.59 191.541 1125.17 186.885C1128.77 182.234 1131.75 178.025 1134.11 174.26C1136.49 170.499 1138.77 169.031 1140.96 169.864Z" fill="white"/>
<path d="M1234.66 156.001C1236.29 157.501 1235.09 160.907 1231.03 166.209C1226.99 171.501 1222.52 176.126 1217.64 180.084C1212.76 184.032 1207.03 188.116 1200.45 192.334C1196.08 195.142 1191.18 196.636 1185.76 196.814C1180.36 196.996 1177.19 194.225 1176.26 188.501C1175.33 182.782 1175.74 176.886 1177.49 170.814C1179.18 164.564 1179.27 161.48 1177.74 161.564C1176.23 161.636 1173.36 163.543 1169.14 167.293C1158.23 177.308 1148.37 188.345 1139.53 200.397C1137.28 204.272 1134.01 206.73 1129.7 207.772C1127.48 208.136 1125.63 207.72 1124.16 206.522C1122.69 205.314 1122.29 203.814 1122.97 202.022C1128.22 186.886 1133.6 171.897 1139.1 157.064C1140.34 153.97 1142.61 151.793 1145.93 150.543C1147.35 150.074 1148.76 150.308 1150.18 151.251C1151.6 152.199 1152.42 153.397 1152.66 154.855C1152.7 156.246 1152.41 157.959 1151.78 160.001C1151.54 161.183 1151.31 162.314 1151.08 163.397C1150.85 164.48 1150.87 165.355 1151.12 166.022C1151.37 166.689 1151.93 166.814 1152.8 166.397C1153.98 165.511 1155.15 164.574 1156.3 163.584C1159.26 161.183 1162.09 158.886 1164.78 156.689C1167.2 154.72 1169.76 152.897 1172.47 151.23C1175.18 149.564 1178.08 148.267 1181.18 147.334C1186.25 146.157 1190.06 146.72 1192.62 149.022C1195.18 151.329 1196.04 154.959 1195.2 159.918C1194.16 164.475 1193.04 168.996 1191.85 173.48C1190.18 177.772 1190.27 180.824 1192.14 182.626C1194.01 184.433 1200.77 180.933 1212.41 172.126L1221.1 164.918C1229.22 157.642 1233.74 154.668 1234.66 156.001Z" fill="white"/>
<path d="M1302.53 160.119C1298.38 165.775 1293.29 170.869 1287.26 175.41C1281.25 179.942 1276.1 183.098 1271.84 184.89C1267.58 186.681 1263.1 188.046 1258.43 188.973C1250.97 190.53 1243.89 190.634 1237.18 189.285C1226.17 186.775 1221.28 179.364 1222.51 167.056C1223.86 156.405 1228.65 147.473 1236.87 140.265C1245.07 133.056 1254.06 128.744 1263.82 127.327C1263.82 127.327 1263.91 127.317 1264.07 127.285C1266.52 126.718 1268.9 126.509 1271.22 126.66C1275.19 127.41 1277.93 129.244 1279.45 132.16C1280.97 135.067 1280.85 138.593 1279.09 142.744C1274.95 151.91 1268.26 157.733 1259.01 160.202C1252.89 161.817 1246.81 162.494 1240.8 162.244C1239.68 162.259 1238.75 162.723 1238.01 163.64C1237.28 164.546 1236.92 165.556 1236.93 166.681C1236.42 174.322 1239.44 178.655 1246.01 179.681C1254.12 181.072 1262.1 179.775 1269.97 175.785C1279.05 171.233 1287.23 164.114 1294.51 154.431C1301.79 144.754 1306.14 140.087 1307.55 140.431C1308.97 140.765 1309.64 142.301 1309.55 145.035C1309.04 149.426 1306.7 154.452 1302.53 160.119ZM1244.59 148.348C1244.18 149.015 1243.92 149.733 1243.82 150.494C1243.72 151.259 1244.12 151.879 1245.01 152.348C1248.26 153.572 1251.6 153.671 1255.03 152.64C1258.46 151.598 1261.22 149.796 1263.3 147.223C1265.39 144.64 1265.99 141.796 1265.12 138.681C1264.7 137.614 1264 137.009 1263.01 136.869C1262.02 136.718 1261.07 136.801 1260.16 137.119C1254.02 139.259 1248.83 143.004 1244.59 148.348Z" fill="white"/>
<mask id="mask0_20_33" style="mask-type:luminance" maskUnits="userSpaceOnUse" x="1321" y="99" width="29" height="29">
<path d="M1321.26 99.3634H1349.46V127.561H1321.26V99.3634Z" fill="white"/>
</mask>
<g mask="url(#mask0_20_33)">
<mask id="mask1_20_33" style="mask-type:luminance" maskUnits="userSpaceOnUse" x="1321" y="99" width="29" height="29">
<path d="M1335.36 99.3634C1327.57 99.3634 1321.26 105.676 1321.26 113.462C1321.26 121.249 1327.57 127.561 1335.36 127.561C1343.15 127.561 1349.46 121.249 1349.46 113.462C1349.46 105.676 1343.15 99.3634 1335.36 99.3634Z" fill="white"/>
</mask>
<g mask="url(#mask1_20_33)">
<path d="M1321.26 99.3634H1349.46V127.561H1321.26V99.3634Z" fill="white"/>
</g>
</g>
</svg>
