<svg width="907" height="1213" viewBox="0 0 907 1213" fill="none" xmlns="http://www.w3.org/2000/svg">
<path d="M145.264 793.494L134.766 810.096L7.56836 607.703H28.3203L145.264 793.494ZM231.934 925.574L242.188 908.973L307.129 1012H286.377L231.934 925.574ZM166.016 760.779L155.518 777.137L49.0723 607.703H69.5801L166.016 760.779ZM252.686 892.615L262.939 876.014L348.633 1012H327.881L252.686 892.615ZM186.768 727.576L176.514 743.934L90.5762 607.703H111.328L186.768 727.576ZM273.682 859.412L283.936 842.811L390.381 1012H369.629L273.682 859.412ZM207.52 694.617L197.266 711.219L132.08 607.703H152.832L207.52 694.617ZM294.189 826.453L304.443 809.852L431.885 1012H411.133L294.189 826.453ZM398.926 607.703H419.678L165.283 1012H144.531L398.926 607.703ZM357.666 607.703H378.174L123.779 1012H103.027L357.666 607.703ZM315.918 607.703H336.67L82.0312 1012H61.2793L315.918 607.703ZM274.414 607.703H295.166L40.5273 1012H19.7754L274.414 607.703Z" fill="white" fill-opacity="0.05"/>
<path d="M733.174 112.703H750.752V517H733.174V112.703ZM698.018 112.703H715.596V517H698.018V112.703ZM662.861 112.703H680.439V517H662.861V112.703ZM627.705 112.703H645.283V517H627.705V112.703Z" fill="white" fill-opacity="0.05"/>
<path d="M761.373 834.266V607.703H778.951V834.266C778.951 859.005 769.186 880.164 749.654 897.742C730.123 915.32 706.686 924.109 679.342 924.109C651.998 924.109 628.561 915.32 609.029 897.742C589.498 880.164 579.732 859.005 579.732 834.266V607.703H597.311V834.266C597.311 854.122 605.286 871.131 621.236 885.291C637.35 899.451 656.718 906.531 679.342 906.531C701.965 906.531 721.253 899.451 737.203 885.291C753.316 871.131 761.373 854.122 761.373 834.266ZM796.529 834.266V607.703H814.107V834.266C814.107 851.193 810.527 867.387 803.365 882.85C796.204 898.149 786.601 911.414 774.557 922.645C762.512 933.875 748.189 942.827 731.588 949.5C714.986 956.01 697.571 959.266 679.342 959.266C661.113 959.266 643.697 956.01 627.096 949.5C610.494 942.827 596.171 933.875 584.127 922.645C572.083 911.414 562.48 898.149 555.318 882.85C548.157 867.387 544.576 851.193 544.576 834.266V607.703H562.154V834.266C562.154 853.634 567.363 871.619 577.779 888.221C588.359 904.66 602.6 917.68 620.504 927.283C638.57 936.886 658.183 941.688 679.342 941.688C700.501 941.688 720.032 936.886 737.936 927.283C756.002 917.68 770.243 904.66 780.66 888.221C791.24 871.619 796.529 853.634 796.529 834.266ZM831.686 834.266V607.703H849.264V834.266C849.264 855.913 844.706 876.665 835.592 896.521C826.64 916.215 814.596 933.224 799.459 947.547C784.322 961.87 766.256 973.263 745.26 981.727C724.264 990.19 702.291 994.422 679.342 994.422C656.393 994.422 634.42 990.19 613.424 981.727C592.428 973.263 574.361 961.87 559.225 947.547C544.088 933.224 531.962 916.215 522.848 896.521C513.896 876.665 509.42 855.913 509.42 834.266V607.703H526.998V834.266C526.998 859.982 533.834 883.826 547.506 905.799C561.178 927.609 579.651 944.943 602.926 957.801C626.363 970.496 651.835 976.844 679.342 976.844C706.848 976.844 732.239 970.496 755.514 957.801C778.951 944.943 797.506 927.609 811.178 905.799C824.85 883.826 831.686 859.982 831.686 834.266ZM866.842 834.266V607.703H884.42V834.266C884.42 869.422 875.224 902.055 856.832 932.166C838.44 962.114 813.456 985.877 781.881 1003.46C750.468 1020.87 716.288 1029.58 679.342 1029.58C642.395 1029.58 608.134 1020.87 576.559 1003.46C545.146 985.877 520.243 962.114 501.852 932.166C483.46 902.055 474.264 869.422 474.264 834.266V607.703H491.842V834.266C491.842 858.191 496.806 881.141 506.734 903.113C516.663 925.086 530.009 944.048 546.773 959.998C563.538 975.786 583.476 988.4 606.588 997.84C629.863 1007.28 654.114 1012 679.342 1012C704.57 1012 728.74 1007.28 751.852 997.84C775.126 988.4 795.146 975.786 811.91 959.998C828.674 944.048 842.021 925.086 851.949 903.113C861.878 881.141 866.842 858.191 866.842 834.266Z" fill="white" fill-opacity="0.05"/>
<path d="M308.373 348.266V121.703H325.951V348.266C325.951 373.005 316.186 394.164 296.654 411.742C277.123 429.32 253.686 438.109 226.342 438.109C198.998 438.109 175.561 429.32 156.029 411.742C136.498 394.164 126.732 373.005 126.732 348.266V121.703H144.311V348.266C144.311 368.122 152.286 385.131 168.236 399.291C184.35 413.451 203.718 420.531 226.342 420.531C248.965 420.531 268.253 413.451 284.203 399.291C300.316 385.131 308.373 368.122 308.373 348.266ZM343.529 348.266V121.703H361.107V348.266C361.107 365.193 357.527 381.387 350.365 396.85C343.204 412.149 333.601 425.414 321.557 436.645C309.512 447.875 295.189 456.827 278.588 463.5C261.986 470.01 244.571 473.266 226.342 473.266C208.113 473.266 190.697 470.01 174.096 463.5C157.494 456.827 143.171 447.875 131.127 436.645C119.083 425.414 109.48 412.149 102.318 396.85C95.1569 381.387 91.5762 365.193 91.5762 348.266V121.703H109.154V348.266C109.154 367.634 114.363 385.619 124.779 402.221C135.359 418.66 149.6 431.68 167.504 441.283C185.57 450.886 205.183 455.688 226.342 455.688C247.501 455.688 267.032 450.886 284.936 441.283C303.002 431.68 317.243 418.66 327.66 402.221C338.24 385.619 343.529 367.634 343.529 348.266ZM378.686 348.266V121.703H396.264V348.266C396.264 369.913 391.706 390.665 382.592 410.521C373.64 430.215 361.596 447.224 346.459 461.547C331.322 475.87 313.256 487.263 292.26 495.727C271.264 504.19 249.291 508.422 226.342 508.422C203.393 508.422 181.42 504.19 160.424 495.727C139.428 487.263 121.361 475.87 106.225 461.547C91.0879 447.224 78.9622 430.215 69.8477 410.521C60.8958 390.665 56.4199 369.913 56.4199 348.266V121.703H73.998V348.266C73.998 373.982 80.834 397.826 94.5059 419.799C108.178 441.609 126.651 458.943 149.926 471.801C173.363 484.496 198.835 490.844 226.342 490.844C253.848 490.844 279.239 484.496 302.514 471.801C325.951 458.943 344.506 441.609 358.178 419.799C371.85 397.826 378.686 373.982 378.686 348.266ZM413.842 348.266V121.703H431.42V348.266C431.42 383.422 422.224 416.055 403.832 446.166C385.44 476.114 360.456 499.877 328.881 517.455C297.468 534.87 263.288 543.578 226.342 543.578C189.395 543.578 155.134 534.87 123.559 517.455C92.1458 499.877 67.2435 476.114 48.8516 446.166C30.4596 416.055 21.2637 383.422 21.2637 348.266V121.703H38.8418V348.266C38.8418 372.191 43.806 395.141 53.7344 417.113C63.6628 439.086 77.0091 458.048 93.7734 473.998C110.538 489.786 130.476 502.4 153.588 511.84C176.863 521.28 201.114 526 226.342 526C251.57 526 275.74 521.28 298.852 511.84C322.126 502.4 342.146 489.786 358.91 473.998C375.674 458.048 389.021 439.086 398.949 417.113C408.878 395.141 413.842 372.191 413.842 348.266Z" fill="white" fill-opacity="0.05"/>
</svg>
