<svg width="906" height="1301" viewBox="0 0 906 1301" fill="none" xmlns="http://www.w3.org/2000/svg">
<path d="M307.373 399.266V172.703H324.951V399.266C324.951 424.005 315.186 445.164 295.654 462.742C276.123 480.32 252.686 489.109 225.342 489.109C197.998 489.109 174.561 480.32 155.029 462.742C135.498 445.164 125.732 424.005 125.732 399.266V172.703H143.311V399.266C143.311 419.122 151.286 436.131 167.236 450.291C183.35 464.451 202.718 471.531 225.342 471.531C247.965 471.531 267.253 464.451 283.203 450.291C299.316 436.131 307.373 419.122 307.373 399.266ZM342.529 399.266V172.703H360.107V399.266C360.107 416.193 356.527 432.387 349.365 447.85C342.204 463.149 332.601 476.414 320.557 487.645C308.512 498.875 294.189 507.827 277.588 514.5C260.986 521.01 243.571 524.266 225.342 524.266C207.113 524.266 189.697 521.01 173.096 514.5C156.494 507.827 142.171 498.875 130.127 487.645C118.083 476.414 108.48 463.149 101.318 447.85C94.1569 432.387 90.5762 416.193 90.5762 399.266V172.703H108.154V399.266C108.154 418.634 113.363 436.619 123.779 453.221C134.359 469.66 148.6 482.68 166.504 492.283C184.57 501.886 204.183 506.688 225.342 506.688C246.501 506.688 266.032 501.886 283.936 492.283C302.002 482.68 316.243 469.66 326.66 453.221C337.24 436.619 342.529 418.634 342.529 399.266ZM377.686 399.266V172.703H395.264V399.266C395.264 420.913 390.706 441.665 381.592 461.521C372.64 481.215 360.596 498.224 345.459 512.547C330.322 526.87 312.256 538.263 291.26 546.727C270.264 555.19 248.291 559.422 225.342 559.422C202.393 559.422 180.42 555.19 159.424 546.727C138.428 538.263 120.361 526.87 105.225 512.547C90.0879 498.224 77.9622 481.215 68.8477 461.521C59.8958 441.665 55.4199 420.913 55.4199 399.266V172.703H72.998V399.266C72.998 424.982 79.834 448.826 93.5059 470.799C107.178 492.609 125.651 509.943 148.926 522.801C172.363 535.496 197.835 541.844 225.342 541.844C252.848 541.844 278.239 535.496 301.514 522.801C324.951 509.943 343.506 492.609 357.178 470.799C370.85 448.826 377.686 424.982 377.686 399.266ZM412.842 399.266V172.703H430.42V399.266C430.42 434.422 421.224 467.055 402.832 497.166C384.44 527.114 359.456 550.877 327.881 568.455C296.468 585.87 262.288 594.578 225.342 594.578C188.395 594.578 154.134 585.87 122.559 568.455C91.1458 550.877 66.2435 527.114 47.8516 497.166C29.4596 467.055 20.2637 434.422 20.2637 399.266V172.703H37.8418V399.266C37.8418 423.191 42.806 446.141 52.7344 468.113C62.6628 490.086 76.0091 509.048 92.7734 524.998C109.538 540.786 129.476 553.4 152.588 562.84C175.863 572.28 200.114 577 225.342 577C250.57 577 274.74 572.28 297.852 562.84C321.126 553.4 341.146 540.786 357.91 524.998C374.674 509.048 388.021 490.086 397.949 468.113C407.878 446.141 412.842 423.191 412.842 399.266Z" fill="#191919"/>
<path d="M159.264 881.494L148.766 898.096L21.5684 695.703H42.3203L159.264 881.494ZM245.934 1013.57L256.188 996.973L321.129 1100H300.377L245.934 1013.57ZM180.016 848.779L169.518 865.137L63.0723 695.703H83.5801L180.016 848.779ZM266.686 980.615L276.939 964.014L362.633 1100H341.881L266.686 980.615ZM200.768 815.576L190.514 831.934L104.576 695.703H125.328L200.768 815.576ZM287.682 947.412L297.936 930.811L404.381 1100H383.629L287.682 947.412ZM221.52 782.617L211.266 799.219L146.08 695.703H166.832L221.52 782.617ZM308.189 914.453L318.443 897.852L445.885 1100H425.133L308.189 914.453ZM412.926 695.703H433.678L179.283 1100H158.531L412.926 695.703ZM371.666 695.703H392.174L137.779 1100H117.027L371.666 695.703ZM329.918 695.703H350.67L96.0312 1100H75.2793L329.918 695.703ZM288.414 695.703H309.166L54.5273 1100H33.7754L288.414 695.703Z" fill="#191919"/>
<path d="M728.174 172.703H745.752V577H728.174V172.703ZM693.018 172.703H710.596V577H693.018V172.703ZM657.861 172.703H675.439V577H657.861V172.703ZM622.705 172.703H640.283V577H622.705V172.703Z" fill="#191919"/>
<path d="M760.373 922.266V695.703H777.951V922.266C777.951 947.005 768.186 968.164 748.654 985.742C729.123 1003.32 705.686 1012.11 678.342 1012.11C650.998 1012.11 627.561 1003.32 608.029 985.742C588.498 968.164 578.732 947.005 578.732 922.266V695.703H596.311V922.266C596.311 942.122 604.286 959.131 620.236 973.291C636.35 987.451 655.718 994.531 678.342 994.531C700.965 994.531 720.253 987.451 736.203 973.291C752.316 959.131 760.373 942.122 760.373 922.266ZM795.529 922.266V695.703H813.107V922.266C813.107 939.193 809.527 955.387 802.365 970.85C795.204 986.149 785.601 999.414 773.557 1010.64C761.512 1021.88 747.189 1030.83 730.588 1037.5C713.986 1044.01 696.571 1047.27 678.342 1047.27C660.113 1047.27 642.697 1044.01 626.096 1037.5C609.494 1030.83 595.171 1021.88 583.127 1010.64C571.083 999.414 561.48 986.149 554.318 970.85C547.157 955.387 543.576 939.193 543.576 922.266V695.703H561.154V922.266C561.154 941.634 566.363 959.619 576.779 976.221C587.359 992.66 601.6 1005.68 619.504 1015.28C637.57 1024.89 657.183 1029.69 678.342 1029.69C699.501 1029.69 719.032 1024.89 736.936 1015.28C755.002 1005.68 769.243 992.66 779.66 976.221C790.24 959.619 795.529 941.634 795.529 922.266ZM830.686 922.266V695.703H848.264V922.266C848.264 943.913 843.706 964.665 834.592 984.521C825.64 1004.22 813.596 1021.22 798.459 1035.55C783.322 1049.87 765.256 1061.26 744.26 1069.73C723.264 1078.19 701.291 1082.42 678.342 1082.42C655.393 1082.42 633.42 1078.19 612.424 1069.73C591.428 1061.26 573.361 1049.87 558.225 1035.55C543.088 1021.22 530.962 1004.22 521.848 984.521C512.896 964.665 508.42 943.913 508.42 922.266V695.703H525.998V922.266C525.998 947.982 532.834 971.826 546.506 993.799C560.178 1015.61 578.651 1032.94 601.926 1045.8C625.363 1058.5 650.835 1064.84 678.342 1064.84C705.848 1064.84 731.239 1058.5 754.514 1045.8C777.951 1032.94 796.506 1015.61 810.178 993.799C823.85 971.826 830.686 947.982 830.686 922.266ZM865.842 922.266V695.703H883.42V922.266C883.42 957.422 874.224 990.055 855.832 1020.17C837.44 1050.11 812.456 1073.88 780.881 1091.46C749.468 1108.87 715.288 1117.58 678.342 1117.58C641.395 1117.58 607.134 1108.87 575.559 1091.46C544.146 1073.88 519.243 1050.11 500.852 1020.17C482.46 990.055 473.264 957.422 473.264 922.266V695.703H490.842V922.266C490.842 946.191 495.806 969.141 505.734 991.113C515.663 1013.09 529.009 1032.05 545.773 1048C562.538 1063.79 582.476 1076.4 605.588 1085.84C628.863 1095.28 653.114 1100 678.342 1100C703.57 1100 727.74 1095.28 750.852 1085.84C774.126 1076.4 794.146 1063.79 810.91 1048C827.674 1032.05 841.021 1013.09 850.949 991.113C860.878 969.141 865.842 946.191 865.842 922.266Z" fill="#191919"/>
</svg>
